<svg width="100%" height="100%" viewBox="0 0 52 52" fill="none" xmlns="http://www.w3.org/2000/svg">
<path fill-rule="evenodd" clip-rule="evenodd" d="M8.07144 1.85718H20.4286C21.9671 1.85718 23.2143 3.10438 23.2143 4.64289V9.28575H34.3571V4.64289C34.3571 3.10438 35.6044 1.85718 37.1429 1.85718C38.6813 1.85718 39.9286 3.10438 39.9286 4.64289V9.28575H47.3571C48.8956 9.28575 50.1429 10.533 50.1429 12.0715C50.1429 13.61 48.8956 14.8572 47.3571 14.8572H39.9286V25.0715H47.3571C48.8956 25.0715 50.1429 26.3187 50.1429 27.8572V43.9285C50.1429 47.3605 47.3605 50.1429 43.9285 50.1429H8.07144C4.63937 50.1429 1.85715 47.3605 1.85715 43.9285V8.07147C1.85715 4.6394 4.63937 1.85718 8.07144 1.85718ZM34.3571 25.0715V14.8572H23.2143V25.0715H34.3571ZM44.5714 30.6429H20.4286C18.8901 30.6429 17.6429 29.3957 17.6429 27.8572V13.0581H7.42858V43.9285C7.42858 44.2836 7.7164 44.5715 8.07144 44.5715H43.9285C44.2836 44.5715 44.5714 44.2836 44.5714 43.9285V30.6429Z" fill="url(#paint0_linear_46_81)"/>
<defs>
<linearGradient id="paint0_linear_46_81" x1="9.75064" y1="11.1433" x2="48.7494" y2="32.7522" gradientUnits="userSpaceOnUse">
<stop stop-color="#FF4DF5"/>
<stop offset="1" stop-color="#FF7D5D"/>
</linearGradient>
</defs>
</svg>
