<svg width="100%" height="100%" viewBox="0 0 52 52" fill="none" xmlns="http://www.w3.org/2000/svg">
<g clip-path="url(#clip0_46_72)">
<path fill-rule="evenodd" clip-rule="evenodd" d="M51.3897 4.52604C52.351 3.32466 52.156 1.57164 50.9548 0.610539C49.7532 -0.350558 48.0005 -0.155777 47.0392 1.04559L33.8687 17.5087L28.6001 13.5573C27.3693 12.6341 25.6233 12.8836 24.7001 14.1144C23.7771 15.3452 24.0265 17.0913 25.2573 18.0144L32.6859 23.5858C33.8896 24.4886 35.5927 24.2724 36.5326 23.0975L51.3897 4.52604ZM5.57143 11.1429H23.1113C24.6498 11.1429 25.897 9.89564 25.897 8.35714C25.897 6.81865 24.6498 5.57143 23.1113 5.57143H4.64286C2.07868 5.57143 0 7.65009 0 10.2143V38.0714C0 40.6358 2.07868 42.7143 4.64286 42.7143H19.707L18.3776 46.4286H14.8571C13.3186 46.4286 12.0714 47.6758 12.0714 49.2143C12.0714 50.7527 13.3186 52 14.8571 52H37.1429C38.6813 52 39.9286 50.7527 39.9286 49.2143C39.9286 47.6758 38.6813 46.4286 37.1429 46.4286H33.622L32.2927 42.7143H47.3571C49.9215 42.7143 52 40.6358 52 38.0714V18.1388C52 16.6003 50.7527 15.3531 49.2143 15.3531C47.6758 15.3531 46.4286 16.6003 46.4286 18.1388V37.1429H5.57143V11.1429Z" fill="url(#paint0_linear_46_72)"/>
</g>
<defs>
<linearGradient id="paint0_linear_46_72" x1="8.50074" y1="10.0004" x2="50.4995" y2="33.2718" gradientUnits="userSpaceOnUse">
<stop stop-color="#FF4DF5"/>
<stop offset="1" stop-color="#FF7D5D"/>
</linearGradient>
<clipPath id="clip0_46_72">
<rect width="52" height="52" fill="white"/>
</clipPath>
</defs>
</svg>
