<svg width="100%" height="100%" viewBox="0 0 52 52" fill="none" xmlns="http://www.w3.org/2000/svg">
<path fill-rule="evenodd" clip-rule="evenodd" d="M7.42768 1.85645H23.6776V5.75906C23.3162 5.70516 22.9464 5.67723 22.5704 5.67723C18.4479 5.67723 15.1059 9.0192 15.1059 13.1417C15.1059 17.2642 18.4479 20.6062 22.5704 20.6062C22.9464 20.6062 23.3162 20.5782 23.6776 20.5244V23.6779H16.9749C16.0593 23.6779 15.2293 24.216 14.8556 25.052C14.482 25.8878 14.6345 26.8653 15.2452 27.5475C15.6933 28.0482 15.9631 28.7038 15.9631 29.428C15.9631 30.9863 14.6998 32.2496 13.1415 32.2496C11.5831 32.2496 10.3199 30.9863 10.3199 29.428C10.3199 28.7038 10.5896 28.0482 11.0378 27.5475C11.6484 26.8653 11.801 25.8878 11.4273 25.052C11.0537 24.216 10.2236 23.6779 9.30803 23.6779H1.85623V7.42789C1.85623 4.35086 4.35065 1.85645 7.42768 1.85645ZM1.85623 28.3207V44.5722C1.85623 47.6494 4.35065 50.1436 7.42768 50.1436H23.6776V42.6905C23.6776 41.7749 24.2158 40.9448 25.0517 40.5711C25.8876 40.1975 26.865 40.3501 27.5473 40.9608C28.048 41.4087 28.7036 41.6784 29.4278 41.6784C30.9861 41.6784 32.2494 40.4151 32.2494 38.857C32.2494 37.2985 30.9861 36.0353 29.4278 36.0353C28.7036 36.0353 28.048 36.305 27.5473 36.7532C26.865 37.3638 25.8876 37.5165 25.0517 37.1428C24.2158 36.7691 23.6776 35.939 23.6776 35.0234V28.3207H20.5241C20.578 28.6821 20.6059 29.0519 20.6059 29.428C20.6059 33.5505 17.264 36.8925 13.1415 36.8925C9.01895 36.8925 5.67702 33.5505 5.67702 29.428C5.67702 29.0519 5.70495 28.6821 5.75881 28.3207H1.85623ZM28.3205 28.3207V31.4742C28.6819 31.4204 29.0517 31.3924 29.4278 31.3924C33.5503 31.3924 36.8922 34.7344 36.8922 38.857C36.8922 42.9795 33.5503 46.3212 29.4278 46.3212C29.0517 46.3212 28.6819 46.2934 28.3205 46.2395V50.1436H44.5722C47.6491 50.1436 50.1436 47.6494 50.1436 44.5722V28.3207H42.6901C41.7746 28.3207 40.9444 27.7825 40.5708 26.9467C40.1971 26.1108 40.3498 25.1334 40.9604 24.4511C41.4083 23.9504 41.6784 23.2948 41.6784 22.5706C41.6784 21.0123 40.4151 19.749 38.8566 19.749C37.2985 19.749 36.0351 21.0123 36.0351 22.5706C36.0351 23.2948 36.3048 23.9504 36.753 24.4511C37.3635 25.1334 37.5161 26.1108 37.1425 26.9467C36.7689 27.7825 35.9388 28.3207 35.0232 28.3207H28.3205ZM50.1436 23.6779V7.42789C50.1436 4.35086 47.6491 1.85645 44.5722 1.85645H28.3205V9.30824C28.3205 10.2239 27.7823 11.0539 26.9464 11.4276C26.1106 11.8012 25.1331 11.6487 24.4509 11.038C23.9502 10.5899 23.2945 10.3201 22.5704 10.3201C21.012 10.3201 19.7488 11.5834 19.7488 13.1417C19.7488 14.7 21.012 15.9633 22.5704 15.9633C23.2945 15.9633 23.9502 15.6936 24.4509 15.2454C25.1331 14.6348 26.1106 14.4822 26.9464 14.8559C27.7823 15.2295 28.3205 16.0596 28.3205 16.9752V23.6779H31.474C31.4201 23.3165 31.3922 22.9467 31.3922 22.5706C31.3922 18.4481 34.7341 15.1061 38.8566 15.1061C42.9791 15.1061 46.3212 18.4481 46.3212 22.5706C46.3212 22.9467 46.2934 23.3165 46.2395 23.6779H50.1436Z" fill="url(#paint0_linear_46_75)"/>
<defs>
<linearGradient id="paint0_linear_46_75" x1="9.75" y1="11.1428" x2="48.75" y2="32.7526" gradientUnits="userSpaceOnUse">
<stop stop-color="#FF4DF5"/>
<stop offset="1" stop-color="#FF7D5D"/>
</linearGradient>
</defs>
</svg>
