<svg width="100%" height="100%" viewBox="0 0 52 52" fill="none" xmlns="http://www.w3.org/2000/svg">
<path fill-rule="evenodd" clip-rule="evenodd" d="M26 27.8569C18.8203 27.8569 13 22.0367 13 14.8569V7.42837C13 6.93581 13.1957 6.46343 13.544 6.11518C14.4899 5.20392 15.6437 4.49445 16.8123 3.91016C18.8966 2.86801 21.9649 1.85693 26 1.85693C30.0351 1.85693 33.1034 2.86801 35.1877 3.91016C36.3637 4.49817 37.4942 5.21328 38.4562 6.11518C38.8043 6.46343 39 6.93581 39 7.42837V14.8569C39 22.0367 33.1797 27.8569 26 27.8569ZM1.99296 47.5707C5.90969 38.1784 15.1808 31.5712 25.9996 31.5712C36.8183 31.5712 46.0895 38.1784 50.0062 47.5707C50.2454 48.1438 50.1819 48.7987 49.8375 49.3153C49.4932 49.8324 48.9131 50.1425 48.292 50.1425H3.70704C3.086 50.1425 2.50606 49.8324 2.16164 49.3153C1.81723 48.7987 1.75393 48.1438 1.99296 47.5707Z" fill="url(#paint0_linear_46_84)"/>
<defs>
<linearGradient id="paint0_linear_46_84" x1="9.74562" y1="11.143" x2="48.7502" y2="32.7614" gradientUnits="userSpaceOnUse">
<stop stop-color="#FF4DF5"/>
<stop offset="1" stop-color="#FF7D5D"/>
</linearGradient>
</defs>
</svg>
