<svg width="100%" height="100%" viewBox="0 0 52 52" fill="none" xmlns="http://www.w3.org/2000/svg">
<g clip-path="url(#clip0_46_78)">
<path fill-rule="evenodd" clip-rule="evenodd" d="M27.8572 16.7143C32.4727 16.7143 36.2143 12.9727 36.2143 8.35714C36.2143 3.74162 32.4727 0 27.8572 0C23.2416 0 19.5 3.74162 19.5 8.35714C19.5 12.9727 23.2416 16.7143 27.8572 16.7143ZM27.8572 20.4286C29.9085 20.4286 31.5714 22.0915 31.5714 24.1429V31.5714H36.5508C39.5226 31.5714 42.208 33.3424 43.3788 36.0737L47.9852 46.8227C48.7935 48.708 47.9199 50.8917 46.0345 51.6995C44.1491 52.5077 41.9655 51.6341 41.1576 49.7488L36.5508 39H31.5714C27.4687 39 24.1429 35.6741 24.1429 31.5714V24.1429C24.1429 22.0915 25.8058 20.4286 27.8572 20.4286ZM17.7146 26.155C19.2298 25.8884 20.242 24.444 19.9754 22.9287C19.7088 21.4135 18.2643 20.4013 16.7491 20.6679C9.34203 21.9712 3.71429 28.4327 3.71429 36.2143C3.71429 44.9325 10.7818 52 19.5 52C23.3618 52 26.9062 50.6097 29.649 48.3054C30.827 47.3159 30.9797 45.5587 29.9901 44.3805C29.0004 43.2027 27.2433 43.0501 26.0653 44.0395C24.2887 45.5319 22.0027 46.4286 19.5 46.4286C13.8588 46.4286 9.28572 41.8555 9.28572 36.2143C9.28572 31.1839 12.9249 26.9978 17.7146 26.155Z" fill="url(#paint0_linear_46_78)"/>
</g>
<defs>
<linearGradient id="paint0_linear_46_78" x1="11.0007" y1="10.0006" x2="49.3929" y2="28.2345" gradientUnits="userSpaceOnUse">
<stop stop-color="#FF4DF5"/>
<stop offset="1" stop-color="#FF7D5D"/>
</linearGradient>
<clipPath id="clip0_46_78">
<rect width="52" height="52" fill="white"/>
</clipPath>
</defs>
</svg>
