<svg width="100%" height="100%" viewBox="0 0 52 52" fill="none" xmlns="http://www.w3.org/2000/svg">
<g clip-path="url(#clip0_46_93)">
<path fill-rule="evenodd" clip-rule="evenodd" d="M38.9161 0.319156C35.9832 -0.265736 32.9449 -0.0153704 30.1472 1.04175C27.3496 2.09887 24.9049 3.92026 23.0916 6.29859C21.2783 8.67688 20.1693 11.5165 19.8906 14.4942C19.6706 16.8461 19.9756 19.2094 20.774 21.4162L1.71256 40.4776C-0.494666 42.6847 -0.458065 46.2745 1.79372 48.4362L3.87661 50.436C6.05586 52.5279 9.50539 52.5023 11.6531 50.3777L30.9773 31.2628C33.1103 31.9538 35.3726 32.1915 37.6176 31.9508C40.5619 31.6352 43.361 30.5091 45.7036 28.6977C48.0462 26.8863 49.8405 24.4607 50.8868 21.6905C51.9324 18.9226 52.1902 15.9192 51.6323 13.0136C51.5127 12.3709 51.2598 11.7604 50.8898 11.2214C50.5184 10.6803 50.0378 10.2234 49.4784 9.88027C48.7459 9.4311 47.8014 9.54268 47.1941 10.1501L39.7655 17.5786L39.7414 17.6031C39.5683 17.7828 39.3607 17.9258 39.1308 18.0234C38.9012 18.121 38.6538 18.1714 38.4042 18.1714C38.1546 18.1714 37.9076 18.121 37.6777 18.0234C37.4482 17.9258 37.2406 17.7828 37.0672 17.6031C37.0355 17.5701 37.0025 17.5384 36.9684 17.5079L34.1987 15.0297C33.8802 14.6867 33.7026 14.2354 33.7026 13.7662C33.7026 13.2826 33.8912 12.8182 34.2281 12.4717L41.649 5.05077C42.1846 4.51499 42.3414 3.70738 42.0446 3.01017C41.7761 2.37921 41.372 1.81498 40.8612 1.35742C40.3505 0.899854 39.7455 0.560124 39.0888 0.362272C39.032 0.34515 38.9744 0.330762 38.9161 0.319156Z" fill="url(#paint0_linear_46_93)"/>
</g>
<defs>
<linearGradient id="paint0_linear_46_93" x1="8.55507" y1="10.0068" x2="50.476" y2="33.173" gradientUnits="userSpaceOnUse">
<stop stop-color="#FF4DF5"/>
<stop offset="1" stop-color="#FF7D5D"/>
</linearGradient>
<clipPath id="clip0_46_93">
<rect width="52" height="52" fill="white"/>
</clipPath>
</defs>
</svg>
