<svg width="100%" height="100%" viewBox="0 0 98 45" version="1.1" xmlns="http://www.w3.org/2000/svg" xmlns:xlink="http://www.w3.org/1999/xlink" xml:space="preserve" xmlns:serif="http://www.serif.com/" style="fill-rule:evenodd;clip-rule:evenodd;stroke-linejoin:round;stroke-miterlimit:2;"><path d="M8.525,41.254c-0.001,-11.671 -0.785,-19.651 -2.226,-25.102c-1.212,-4.585 -2.777,-7.148 -4.885,-8.464c-1.408,-0.879 -1.837,-2.736 -0.958,-4.143c0.879,-1.408 2.736,-1.837 4.143,-0.958c2.515,1.571 4.765,4.169 6.455,8.672c0.154,0.41 0.303,0.838 0.448,1.284c2.002,-6.321 4.926,-9.332 8.124,-10.879c2.762,-1.337 5.855,-1.542 9.096,-1.534c1.659,0.005 3.003,1.355 2.999,3.015c-0.004,1.659 -1.355,3.003 -3.014,2.998c-2.294,-0.006 -4.507,-0.012 -6.462,0.934c-2.19,1.059 -3.868,3.378 -5.191,7.875c-1.611,5.475 -2.516,13.766 -2.516,26.302l-0,0.007c-0,1.659 -1.347,3.006 -3.007,3.006c-1.659,0 -3.006,-1.347 -3.006,-3.006l-0,-0.007Zm37.24,-0.141c0,-11.675 -0.784,-19.657 -2.225,-25.108c-1.212,-4.586 -2.778,-7.148 -4.886,-8.465c-1.407,-0.879 -1.836,-2.735 -0.957,-4.143c0.879,-1.407 2.735,-1.836 4.143,-0.957c2.514,1.57 4.764,4.168 6.454,8.671c0.155,0.412 0.305,0.841 0.45,1.289c0.13,-0.41 0.263,-0.805 0.399,-1.185c1.615,-4.504 3.753,-7.138 6.095,-8.746c3.733,-2.563 8.203,-2.469 12.876,-2.469c4.816,0 9.134,0.461 12.651,3.555c2.047,1.8 3.871,4.532 5.251,8.796c0.36,-1.126 0.749,-2.137 1.161,-3.044c1.589,-3.49 3.572,-5.637 5.767,-7.008c1.408,-0.879 3.264,-0.45 4.143,0.958c0.879,1.407 0.45,3.264 -0.958,4.143c-1.356,0.847 -2.497,2.242 -3.479,4.399c-2.353,5.169 -3.631,14.032 -3.631,29.174c-0,1.659 -1.347,3.006 -3.007,3.006c-1.659,0 -3.006,-1.347 -3.006,-3.006c-0,-12.422 -0.884,-20.655 -2.505,-26.105c-1.331,-4.475 -3.05,-6.796 -5.339,-7.866c-2.086,-0.976 -4.486,-0.988 -7.048,-0.988c-3.413,-0 -6.745,-0.461 -9.472,1.411c-1.994,1.37 -3.506,3.989 -4.689,8.631c-1.395,5.475 -2.175,13.451 -2.175,25.057c0,1.66 -1.347,3.007 -3.006,3.007c-1.66,-0 -3.007,-1.347 -3.007,-3.007Z" style="fill:url(#_Linear1);"/><defs><linearGradient id="_Linear1" x1="0" y1="0" x2="1" y2="-0.00353382" gradientUnits="userSpaceOnUse" gradientTransform="matrix(97.884,30.0502,-29.8596,98.509,-0.401649,3.25108)"><stop offset="0" style="stop-color:#ff53f5;stop-opacity:1"/><stop offset="1" style="stop-color:#ff643f;stop-opacity:1"/></linearGradient></defs></svg>