<svg width="100%" height="100%" viewBox="0 0 262 59" version="1.1" xmlns="http://www.w3.org/2000/svg" xmlns:xlink="http://www.w3.org/1999/xlink" xml:space="preserve" xmlns:serif="http://www.serif.com/" fill="currentColor"><title>Musicnotes</title><rect id="Artboard1" x="0" y="0" width="261.288" height="58.772" style="fill:none;"/><g><path d="M20.974,0.677c-11.224,0 -20.324,9.1 -20.324,20.324c0,11.225 9.1,20.325 20.324,20.325c11.225,-0 20.325,-9.1 20.325,-20.325c-0,-11.224 -9.1,-20.324 -20.325,-20.324Zm10.597,16.651l-10.849,0c-0.211,0 -0.355,0.216 -0.271,0.411l3.433,7.778l0.017,0.043c0.246,0.643 0.375,1.336 0.355,2.061c-0.001,0.054 -0.006,0.108 -0.012,0.162l-0.004,0.051l-0.003,0.031c-0.105,1.53 -0.808,2.944 -2.012,4c-1.204,1.056 -2.766,1.631 -4.417,1.631c-0.062,0 -0.124,0 -0.186,-0.002c-1.719,-0.045 -3.32,-0.708 -4.513,-1.866c-1.208,-1.176 -1.852,-2.718 -1.809,-4.343c0.043,-1.625 0.763,-3.132 2.031,-4.242c1.251,-1.094 2.884,-1.676 4.603,-1.629c0.468,0.013 0.932,0.083 1.386,0.201c0.408,0.107 0.757,-0.312 0.596,-0.701l-4.603,-10.853c-0.312,-0.735 0.229,-1.552 1.028,-1.552l11.39,-0c0.192,-0 0.365,0.113 0.442,0.289l3.611,8.199c0.069,0.158 -0.045,0.333 -0.218,0.333l0.005,-0.002Zm-13.106,7.332l-3.616,-0c-0.28,-0 -0.466,0.29 -0.346,0.545l2.247,4.819c0.062,0.135 0.199,0.222 0.346,0.222l3.616,0c0.28,0 0.466,-0.29 0.346,-0.545l-2.247,-4.819c-0.062,-0.135 -0.199,-0.222 -0.346,-0.222Zm135.641,-13.622c0.321,1.954 -1.345,3.62 -3.299,3.299c-1.184,-0.194 -2.138,-1.148 -2.333,-2.332c-0.321,-1.955 1.345,-3.62 3.3,-3.299c1.184,0.194 2.137,1.148 2.332,2.332Zm103.727,12.01c-0.313,-0.462 -0.673,-0.914 -1.028,-1.362c-0.962,-1.211 -1.91,-2.402 -1.91,-3.731c0,-0.569 0.3,-1.183 0.567,-1.441c-0.075,-0.073 -0.306,-0.141 -0.612,-0.141c-1.257,-0 -2.443,0.534 -3.356,1.383c-0.85,0.789 -1.904,2.75 -2.467,3.799l-0.035,0.064c-0.291,0.541 -0.595,1.132 -0.914,1.749l-0.002,0.003c-1.172,2.27 -2.524,4.889 -3.978,6.623c-1.708,2.035 -3.436,2.448 -5.018,2.448c-0.647,0 -1.59,-0.096 -2.309,-0.415c-0.99,-0.44 -1.924,-1.289 -2.365,-2.29c-0.363,-0.827 -0.524,-1.712 -0.532,-2.61c0.584,0.746 2.499,1.479 4.086,1.411c3.703,-0.158 6.418,-2.935 6.937,-5.476c0.875,-4.271 -1.906,-6.268 -5.236,-6.125c-4.359,0.186 -7.453,3.949 -9.131,7.635c-0.328,0.72 -0.614,1.457 -0.901,2.194l-0.001,0c-0.418,1.074 -0.836,2.148 -1.381,3.17c-0.668,1.251 -1.715,2.94 -3.329,2.94c-1.824,0 -1.636,-2.521 -1.492,-3.709c0.341,-2.828 2.634,-8.473 3.678,-11.045c0.206,-0.506 0.364,-0.893 0.448,-1.117c0.207,-0.545 0.866,-2.18 1.59,-3.97l6.399,-0.066c1.176,-0.022 2.141,-0.971 2.195,-2.136l-7.652,-0.113c0.799,-1.97 1.474,-3.622 1.474,-3.622l-2.608,-0l-0.045,0.096c-0.565,1.205 -1.111,2.368 -1.644,3.483l-42.51,-0.631c-0.188,0 -0.37,-0 -0.548,-0.001c-3.808,-0.007 -5.138,-0.009 -5.332,3.499l47.229,-0.481c-2.938,5.901 -5.662,10.141 -9.657,11.823c-0.274,-3.23 -1.884,-6.063 -4.574,-7.295c-1.026,-0.47 -2.116,-0.671 -3.222,-0.643c-4.096,0.104 -7.765,3.365 -9.777,8.12c-0.307,0.727 -0.58,1.386 -0.828,1.984c-0.607,1.471 -1.062,2.57 -1.509,3.387c-0.629,1.146 -1.46,2.58 -3.002,2.58c-1.541,0 -0.978,-1.999 -0.693,-2.935c0.439,-1.438 0.694,-2.183 0.89,-2.758c0.328,-0.963 0.494,-1.451 1.095,-3.915c0.744,-3.053 -0.588,-6.414 -3.781,-6.414c-5.347,-0 -7.439,4.702 -9.997,10.453l-0.017,0.038c2.324,-6.369 1.837,-10.491 -2.159,-10.491c-1.745,-0 -3.821,1.37 -5.826,4.757c-0.418,0.703 -0.82,1.415 -1.22,2.122l-0.001,0.001c-1.777,3.137 -3.489,6.16 -6.029,7.774c-1.329,0.879 -3.39,1.033 -4.683,0.535c-2.537,-0.978 -3.402,-4.572 -1.98,-8.251c1.022,-2.643 3.212,-5.014 5.174,-5.014c1.631,0 1.375,2.033 0.588,3.671c-0.287,0.594 -0.761,1.274 -1.114,1.749c-0.271,0.364 -0.164,0.892 0.238,1.105c1.097,0.586 2.482,0.475 3.501,-0.179c1.1,-0.704 1.908,-1.794 2.15,-3.073c0.239,-1.261 -0.054,-2.617 -0.929,-3.581c-1.261,-1.392 -3.416,-1.806 -5.214,-1.637c-3.836,0.361 -7.408,4.013 -8.87,7.927c-0.056,0.137 -0.111,0.276 -0.168,0.418l-0.001,0.004c-1.272,3.181 -3.019,7.549 -5.559,7.549c-1.649,-0 -2.079,-1.805 -0.807,-5.469c0.63,-1.813 1.637,-4.263 2.673,-6.782c0.499,-1.212 1.004,-2.441 1.478,-3.622l-5.053,-0.004c0,-0 -4.263,9.303 -8.093,14.092c0.357,-3.812 -1.291,-6.22 -2.379,-7.811l-0.004,-0.005c-0.053,-0.078 -0.105,-0.155 -0.156,-0.23c-0.314,-0.462 -0.672,-0.913 -1.029,-1.362c-0.962,-1.21 -1.909,-2.402 -1.909,-3.731c-0,-0.568 0.299,-1.182 0.567,-1.441c-0.076,-0.072 -0.306,-0.141 -0.612,-0.141c-1.255,0 -2.444,0.535 -3.357,1.384c-0.729,0.677 -1.749,2.488 -2.404,3.651c-0.125,0.222 -0.237,0.42 -0.33,0.582c-0.244,0.421 -0.567,1.067 -0.951,1.835c-1.613,3.225 -4.309,8.611 -6.704,8.611c-1.752,0 -1.761,-1.468 -1.413,-2.841c0.289,-1.135 1.281,-4.09 4.683,-12.593l-6.124,-0.004c0,-0 -4.135,9.106 -5.392,11.631c-1.052,2.112 -1.973,3.805 -3.526,3.805c-1.751,0 -1.099,-2.176 -0.429,-3.848c0.202,-0.506 0.436,-1.088 0.687,-1.711l0.001,-0.004c0.622,-1.544 1.345,-3.343 1.948,-4.875c1.33,-3.378 -1.338,-5.169 -3.923,-5.169c-1.602,-0 -3.408,0.994 -4.165,2.608c0.319,-0.22 1.208,-0.396 1.764,0c0.339,0.239 0.641,1.093 0.44,1.68c-0.637,1.87 -1.238,3.275 -1.826,4.649l0,0c-0.747,1.749 -1.473,3.446 -2.223,5.984c-0.892,3.015 0.485,6.694 3.677,6.694c5.36,0 7.511,-4.364 10.117,-10.771c-2.324,6.369 -1.28,10.771 3.293,10.771c1.642,0 3.617,-1.047 5.522,-3.339c2.489,-2.992 5.407,-9.066 7.174,-12.773c0.928,0.981 2.869,3.412 3.425,5.223c0.744,2.416 0.017,4.883 -2.354,4.883c-1.685,0 -2.393,-1.391 -2.466,-2.304c-1.776,0.821 -2.702,2.796 -2.287,4.695c0.479,2.183 2.555,3.547 4.702,3.615l0.32,0c4.304,0 7.849,-3.515 10.66,-7.667c-0.825,3.968 0.702,7.659 4.251,7.659c3.814,-0 5.858,-3.068 7.468,-6.795c0.477,2.769 1.954,5.061 4.351,6.157c3.814,1.747 8.084,-0.277 11.173,-4.248c1.427,-1.833 2.673,-4.231 3.776,-6.356c1.435,-2.764 2.631,-5.067 3.675,-5.067c1.214,-0 0.993,1.817 -0.207,4.628c-0.652,1.528 -1.561,3.812 -2.751,6.808l-0,0.001c-0.556,1.399 -1.175,2.953 -1.857,4.658l6.145,-0c0,-0 4.029,-9.219 5.289,-11.723c1.064,-2.108 2.318,-4.298 3.723,-4.298c1.933,0 1.063,2.557 0.518,4.161l-0,0.001c-0.038,0.11 -0.074,0.215 -0.108,0.315c-0.605,1.814 -1.056,3.225 -1.576,4.899c-1.395,4.487 1.429,6.859 4.423,6.859c2.992,-0 5.409,-1.858 7.019,-4.621c0.318,-0.547 0.608,-1.118 0.874,-1.695c0.59,2.548 2.084,4.648 4.332,5.678c4.41,2.021 10.044,-0.848 12.586,-6.407c0.347,-0.755 0.614,-1.523 0.813,-2.288c1.375,-0.472 2.679,-1.266 3.789,-2.407c-3.368,5.048 -2.25,11.75 2.531,11.75c3.718,0 5.756,-2.92 7.346,-6.523c0.558,2.638 2.07,4.821 4.375,5.878c2.148,0.983 4.613,0.765 6.717,-0.227c2.205,-1.039 4.007,-2.839 5.23,-4.932c1.247,-2.132 2.418,-4.289 3.507,-6.509l0.146,-0.297c0.499,-1.011 1.712,-3.47 1.679,-3.504c0.928,0.981 2.87,3.412 3.425,5.223c0.744,2.416 0.018,4.883 -2.354,4.883c-1.684,0 -2.392,-1.391 -2.465,-2.304c-1.176,0.543 -2.013,1.654 -2.323,2.901c-0.741,2.978 2.116,5.409 4.893,5.409c3.124,0 6.947,-2.061 7.686,-6.455c0.729,-4.331 -1.088,-6.988 -2.259,-8.701l-0.001,-0.002c-0.055,-0.081 -0.11,-0.161 -0.162,-0.238l0.015,0.007Zm-52.281,9.135c-2.538,-0.977 -3.403,-4.571 -1.981,-8.25c0.217,-0.558 0.476,-1.084 0.764,-1.57c0.047,1.119 0.38,2.237 0.953,3.205c1.42,2.271 3.8,3.635 6.367,3.971c-1.641,2.317 -4.096,3.418 -6.103,2.644Zm7.701,-6.409c-0.214,0.027 -0.428,0.049 -0.637,0.062c-1.805,0.064 -3.836,-0.419 -5.005,-1.828c-0.285,-0.332 -0.52,-0.762 -0.683,-1.234c-0.806,-2.35 1.452,-4.661 3.78,-3.791c0.011,0.004 0.022,0.009 0.032,0.011c2.147,0.827 3.126,3.688 2.515,6.777l-0.002,0.003Zm25.361,-6.934c0.834,-0.214 1.847,-0.054 2.316,0.74c0.54,0.915 0.395,2.298 -0.02,3.183c-0.652,1.396 -1.563,2.418 -3.074,3.145c-1.221,0.586 -2.935,0.937 -3.973,0.896c0.044,-1.45 0.466,-2.914 1.078,-4.184c0.725,-1.501 1.939,-3.338 3.673,-3.784l0,0.004Zm-143.616,-8.383c2.349,-1.465 5.603,-2.132 7.97,-2.132l0.006,0.002c-2.986,7.212 -8.913,23.636 -6.972,29.901l-7.531,-0c0.052,-7.126 6.221,-22.679 7.572,-26.005c-1.342,1.079 -4.079,3.692 -7.13,8.952c-2.649,4.567 -5.816,11.789 -7.122,17.053l-5.97,-0c0,-0 2.47,-8.377 3.06,-12.578c0.076,-0.539 0.158,-1.088 0.24,-1.642c0.283,-1.897 0.575,-3.86 0.677,-5.72c0.013,-0.229 0.027,-0.462 0.042,-0.697c0.107,-1.753 0.223,-3.649 -0.243,-5.332c-0.239,0.171 -0.415,0.376 -0.579,0.62c-0.736,1.088 -1.227,2.358 -1.661,3.592c-0.196,0.555 -0.428,1.241 -0.667,1.95c-0.347,1.027 -0.711,2.103 -1.005,2.903c-0.982,2.662 -1.638,4.4 -2.966,7.088c-2.722,5.514 -7.137,10.034 -13.634,10.034c-5.253,-0 -7.949,-3.282 -9.1,-5.471l6.545,-6.545c-0,-0 0.616,3.536 5.555,3.536c3.395,0 6.3,-3.365 8.248,-6.989c0.558,-1.04 1.065,-2.097 1.545,-3.096c0.39,-0.812 0.762,-1.587 1.128,-2.283c0.093,-0.179 0.192,-0.37 0.296,-0.571c1.16,-2.244 2.965,-5.737 5.457,-6.6c-0.457,-0.67 -1.082,-1.266 -1.933,-1.756c-2.441,-1.406 -5.424,-1.834 -8.111,-1.084c-2.955,0.826 -6.049,3.445 -5.181,6.804c0.65,2.52 3.953,4.453 6.211,2.559c0,-0 -0.737,6.044 -5.971,6.044c-4.054,0 -7.747,-3.686 -7.379,-8.625c0.496,-6.668 7.445,-10.425 13.596,-10.784c5.052,-0.295 10.942,1.719 12.944,6.698c1.287,3.199 1.398,6.812 1.253,10.212c-0.067,1.55 -0.195,3.098 -0.372,4.639c1.22,-2.685 2.561,-5.353 4.087,-7.532c1.878,-2.679 4.531,-5.548 7.095,-7.145Z"/><path d="M59.096,56.961l-1.547,0l-0,-8.822l3.875,-0c1.852,-0 2.884,1.27 2.884,2.764c-0,1.495 -1.045,2.765 -2.884,2.765l-2.328,-0l0,3.293Zm3.624,-6.058c0,-0.846 -0.635,-1.402 -1.508,-1.402l-2.116,0l0,2.804l2.116,0c0.873,0 1.508,-0.555 1.508,-1.402Zm11.024,6.058l-1.786,0l-1.958,-3.293l-1.534,-0l0,3.293l-1.547,0l-0,-8.822l3.875,-0c1.746,-0 2.884,1.137 2.884,2.764c-0,1.574 -1.032,2.421 -2.09,2.593l2.156,3.465Zm-1.654,-6.058c0,-0.846 -0.635,-1.402 -1.508,-1.402l-2.116,0l0,2.804l2.116,0c0.873,0 1.508,-0.555 1.508,-1.402Zm12.393,6.058l-1.693,0l-0.648,-1.693l-4.18,0l-0.648,1.693l-1.693,0l3.465,-8.822l1.932,-0l3.465,8.822Zm-2.778,-3.055l-1.653,-4.458l-1.653,4.458l3.306,-0Zm8.766,3.214c-2.54,-0 -4.564,-1.852 -4.564,-4.563c0,-2.712 2.024,-4.564 4.564,-4.564c1.852,0 2.949,0.926 3.611,1.984l-1.323,0.675c-0.423,-0.728 -1.27,-1.283 -2.288,-1.283c-1.68,-0 -2.976,1.336 -2.976,3.188c-0,1.851 1.296,3.187 2.976,3.187c1.018,0 1.865,-0.542 2.288,-1.283l1.323,0.675c-0.675,1.058 -1.759,1.984 -3.611,1.984Zm9.823,-0.159l-1.548,0l0,-7.46l-2.672,0l0,-1.362l6.892,-0l-0,1.362l-2.672,0l-0,7.46Zm6.853,0l-1.547,0l-0,-8.822l1.547,-0l0,8.822Zm7.365,0.159c-2.54,-0 -4.564,-1.852 -4.564,-4.563c0,-2.712 2.024,-4.564 4.564,-4.564c1.852,0 2.949,0.926 3.611,1.984l-1.323,0.675c-0.423,-0.728 -1.27,-1.283 -2.288,-1.283c-1.68,-0 -2.976,1.336 -2.976,3.188c-0,1.851 1.296,3.187 2.976,3.187c1.018,0 1.865,-0.542 2.288,-1.283l1.323,0.675c-0.675,1.058 -1.759,1.984 -3.611,1.984Zm12.217,-0.159l-6.045,0l-0,-8.822l6.045,-0l-0,1.362l-4.498,0l0,2.288l4.405,0l0,1.363l-4.405,-0l0,2.447l4.498,-0l-0,1.362Zm2.66,-0.78c-0,-0.503 0.423,-0.926 0.926,-0.926c0.503,-0 0.926,0.423 0.926,0.926c0,0.502 -0.423,0.926 -0.926,0.926c-0.503,-0 -0.926,-0.424 -0.926,-0.926Zm11.084,0.78l-1.548,0l0,-8.822l3.876,-0c1.851,-0 2.883,1.27 2.883,2.764c0,1.495 -1.045,2.765 -2.883,2.765l-2.328,-0l-0,3.293Zm3.624,-6.058c0,-0.846 -0.634,-1.402 -1.508,-1.402l-2.116,0l-0,2.804l2.116,0c0.874,0 1.508,-0.555 1.508,-1.402Zm9.634,6.058l-5.436,0l0,-8.822l1.548,-0l-0,7.46l3.888,-0l0,1.362Zm10.656,0l-1.693,0l-0.648,-1.693l-4.18,0l-0.648,1.693l-1.693,0l3.466,-8.822l1.931,-0l3.465,8.822Zm-2.778,-3.055l-1.653,-4.458l-1.654,4.458l3.307,-0Zm8.246,3.055l-1.547,0l-0,-3.664l-3.426,-5.158l1.773,-0l2.433,3.783l2.407,-3.783l1.773,-0l-3.413,5.158l0,3.664Zm4.258,-0.78c0,-0.503 0.423,-0.926 0.926,-0.926c0.503,-0 0.925,0.423 0.925,0.926c0,0.502 -0.422,0.926 -0.925,0.926c-0.503,-0 -0.926,-0.424 -0.926,-0.926Zm11.084,0.78l-1.548,0l0,-8.822l3.875,-0c1.852,-0 2.884,1.27 2.884,2.764c-0,1.495 -1.045,2.765 -2.884,2.765l-2.327,-0l-0,3.293Zm3.623,-6.058c0,-0.846 -0.634,-1.402 -1.507,-1.402l-2.116,0l-0,2.804l2.116,0c0.873,0 1.507,-0.555 1.507,-1.402Zm10.243,6.058l-6.044,0l0,-8.822l6.044,-0l0,1.362l-4.496,0l-0,2.288l4.404,0l-0,1.363l-4.404,-0l-0,2.447l4.496,-0l0,1.362Zm9.737,0l-1.785,0l-1.958,-3.293l-1.534,-0l-0,3.293l-1.548,0l0,-8.822l3.876,-0c1.746,-0 2.884,1.137 2.884,2.764c-0,1.574 -1.033,2.421 -2.091,2.593l2.156,3.465Zm-1.653,-6.058c0,-0.846 -0.634,-1.402 -1.507,-1.402l-2.117,0l-0,2.804l2.117,0c0.873,0 1.507,-0.555 1.507,-1.402Zm6.005,6.058l-1.548,0l0,-8.822l6.044,-0l0,1.362l-4.496,0l-0,2.288l4.404,0l-0,1.363l-4.404,-0l-0,3.809Zm6.805,-4.404c-0,-2.633 1.865,-4.564 4.51,-4.564c2.646,0 4.511,1.931 4.511,4.564c-0,2.632 -1.865,4.563 -4.511,4.563c-2.645,-0 -4.51,-1.931 -4.51,-4.563Zm7.434,-0c-0,-1.826 -1.151,-3.188 -2.924,-3.188c-1.785,-0 -2.923,1.362 -2.923,3.188c-0,1.812 1.138,3.187 2.923,3.187c1.773,0 2.924,-1.375 2.924,-3.187Zm11.224,4.404l-1.785,0l-1.958,-3.293l-1.534,-0l-0,3.293l-1.548,0l0,-8.822l3.876,-0c1.746,-0 2.883,1.137 2.883,2.764c0,1.574 -1.032,2.421 -2.09,2.593l2.156,3.465Zm-1.653,-6.058c0,-0.846 -0.634,-1.402 -1.508,-1.402l-2.116,0l-0,2.804l2.116,0c0.874,0 1.508,-0.555 1.508,-1.402Zm13.623,6.058l-1.548,0l0,-6.679l-2.711,6.679l-0.661,0l-2.699,-6.679l0,6.679l-1.547,0l0,-8.822l2.182,-0l2.394,5.939l2.408,-5.939l2.182,-0l-0,8.822Zm2.949,-0.78c0,-0.503 0.423,-0.926 0.926,-0.926c0.503,-0 0.926,0.423 0.926,0.926c0,0.502 -0.423,0.926 -0.926,0.926c-0.503,-0 -0.926,-0.424 -0.926,-0.926Z" style="fill-rule:nonzero;"/></g></svg>