<svg width="100%" height="100%" viewBox="0 0 262 59" version="1.1" xmlns="http://www.w3.org/2000/svg" xmlns:xlink="http://www.w3.org/1999/xlink" xml:space="preserve" xmlns:serif="http://www.serif.com/" fill="currentColor"><title>Scribd</title><rect id="Artboard1" x="0" y="0" width="261.288" height="58.772" style="fill:none;"/><g><path id="path8" d="M215.15,22.123c0,-3.015 -2.368,-4.955 -6.676,-4.955l-9.195,-0l0,10.395l8.918,0c4.112,-0.011 6.953,-1.871 6.953,-5.44Z" style="fill:none;fill-rule:nonzero;"/><path id="path10" d="M162.698,23.243c-0,-3.742 -2.842,-5.983 -7.716,-5.983l-9.299,-0l0,12.186l9.241,0c4.539,0 7.774,-2.31 7.774,-6.203Z" style="fill:none;fill-rule:nonzero;"/><path id="path12" d="M208.82,30.601l-9.541,0l0,10.639l10.119,-0c4.62,-0 7.404,-2.022 7.404,-5.429c-0,-3.408 -2.726,-5.21 -7.982,-5.21Z" style="fill:none;fill-rule:nonzero;"/><path id="path14" d="M244.062,17.248l-7.069,0l-0,23.865l7.069,-0c7.624,-0 12.487,-5.175 12.487,-11.886c-0,-6.711 -4.863,-11.979 -12.487,-11.979Z" style="fill:none;fill-rule:nonzero;"/><path id="path16" d="M5.767,28.996c1.895,2.287 4.748,3.568 7.716,3.465c2.347,0.124 4.639,-0.759 6.295,-2.426c1.509,-1.539 2.341,-3.62 2.311,-5.775c0.101,-2.053 -0.717,-4.049 -2.23,-5.441c-1.277,-1.231 -2.973,-1.937 -4.747,-1.975c-0.696,0.021 -1.389,0.11 -2.068,0.266c-0.539,0.157 -1.092,0.261 -1.652,0.312c-1.224,-0 -1.836,-0.74 -1.836,-2.218c-0,-2.487 1.24,-4.624 3.719,-6.411c0.708,-0.509 1.454,-0.965 2.23,-1.363c2.422,-1.048 5.041,-1.568 7.681,-1.525c5.329,-0.084 10.563,1.438 15.016,4.367l-3.28,4.712l4.551,3.004l6.168,-8.802l-1.987,-1.559c-5.797,-4.678 -13.055,-7.176 -20.503,-7.058c-12.013,-0 -20.41,7.369 -20.41,17.927l-0,0.751c0.011,4.146 1.062,7.427 3.026,9.749Z" fill="currentColor"/><path id="path18" d="M36.816,26.235c-2.347,-0.124 -4.639,0.759 -6.295,2.426c-1.509,1.539 -2.341,3.62 -2.31,5.775c-0.088,2.043 0.733,4.024 2.24,5.406c1.285,1.262 3.005,1.985 4.806,2.021c0.696,-0.02 1.388,-0.109 2.067,-0.265c0.539,-0.158 1.093,-0.262 1.652,-0.312c1.224,-0 1.837,0.739 1.837,2.218c0,0.52 -0.058,1.04 -0.174,1.547c-2.033,4.99 -7.265,7.855 -14.82,7.855c-6.329,0.024 -12.498,-2.003 -17.58,-5.775l4.112,-4.806l-4.343,-3.349l-7.404,8.767l1.883,1.686c6.405,5.705 14.698,8.845 23.275,8.814c0.97,-0 1.906,-0 2.818,-0.128c4.961,-0.175 9.719,-2.028 13.492,-5.255c3.596,-3.242 5.394,-7.72 5.394,-13.434c-0,-4.143 -0.978,-7.377 -2.934,-9.703c-1.89,-2.295 -4.744,-3.586 -7.716,-3.488Z" fill="currentColor"/><rect id="rect20" x="179.874" y="14.107" width="3.408" height="30.148"/><path id="path22" d="M213.81,28.672c2.925,-1.074 4.855,-3.908 4.782,-7.023c0,-4.62 -3.881,-7.542 -9.818,-7.542l-12.845,-0l0,30.147l13.4,0c6.595,0 10.938,-3.061 10.938,-8.27c0,-4.228 -2.888,-6.237 -6.457,-7.312Zm-14.531,-11.504l9.241,-0c4.308,-0 6.676,1.94 6.676,4.955c0,3.581 -2.841,5.429 -6.93,5.429l-8.987,-0l0,-10.396l0,0.012Zm10.142,24.037l-10.142,0l0,-10.604l9.518,0c5.256,0 8.016,1.895 8.016,5.21c0,3.315 -2.829,5.394 -7.392,5.394Z" fill="currentColor"/><path id="path24" d="M120.248,41.632c-6.63,0 -11.678,-5.475 -11.678,-12.486c0,-7.012 5.002,-12.406 11.678,-12.406c3.589,0.023 7.015,1.519 9.472,4.135l2.31,-2.495c-3.07,-3.176 -7.343,-4.914 -11.759,-4.782c-8.871,0 -15.247,7.023 -15.247,15.64c-0,8.617 6.468,15.536 15.143,15.536c4.618,0.107 9.056,-1.831 12.117,-5.29l-2.31,-2.195c-2.876,2.749 -5.591,4.343 -9.726,4.343Z" fill="currentColor"/><path id="path26" d="M86.173,27.552c-6.642,-1.421 -8.178,-3.015 -8.178,-5.903c-0,-2.887 2.483,-4.909 6.411,-4.909c3.198,0.004 6.289,1.166 8.697,3.269l1.987,-2.622c-2.954,-2.495 -6.727,-3.816 -10.592,-3.708c-5.775,0 -9.911,3.466 -9.911,8.271c0,4.805 3.188,7.242 10.119,8.744c6.33,1.34 7.843,2.934 7.843,5.775c0,3.061 -2.668,5.175 -6.723,5.175c-3.898,0.05 -7.654,-1.49 -10.395,-4.262l-2.056,2.46c3.32,3.156 7.743,4.897 12.324,4.851c5.984,0 10.292,-3.361 10.292,-8.57c0,-4.655 -3.107,-7.104 -9.818,-8.571Z" fill="currentColor"/><path id="path28" d="M166.14,23.116c-0,-5.429 -4.263,-8.998 -10.904,-8.998l-12.96,0l-0,30.148l3.407,0l0,-11.724l8.617,-0l8.744,11.712l4.182,0l-9.241,-12.324c4.713,-0.844 8.155,-3.778 8.155,-8.814Zm-20.457,6.33l0,-12.198l9.31,0c4.863,0 7.716,2.241 7.716,5.984c0,3.742 -3.246,6.214 -7.774,6.214l-9.252,0Z" fill="currentColor"/><path id="path30" d="M244.062,14.107l-10.465,-0l-0,30.147l10.465,0c9.472,0 16.021,-6.595 16.021,-15.12c0,-8.524 -6.515,-15.027 -16.021,-15.027Zm0,27.006l-7.069,-0l-0,-23.865l7.069,0c7.624,0 12.487,5.256 12.487,11.979c-0,6.722 -4.863,11.886 -12.487,11.886Z" fill="currentColor"/></g></svg>