<svg width="100%" height="100%" viewBox="0 0 384 58" version="1.1" xmlns="http://www.w3.org/2000/svg" xmlns:xlink="http://www.w3.org/1999/xlink" xml:space="preserve" xmlns:serif="http://www.serif.com/" fill="currentColor"><title>ServiceNow</title><rect id="Artboard1" x="0" y="0" width="383.478" height="57.518" style="fill:none;"/><g><path d="M93.789,18.019c0.235,0.017 0.477,0.033 0.728,0.05c0.251,0.017 0.494,0.042 0.728,0.075c0.251,0.034 0.494,0.076 0.728,0.126l0,9.562c-0.318,-0.117 -0.644,-0.217 -0.979,-0.301c-0.318,-0.083 -0.644,-0.15 -0.979,-0.201c-0.335,-0.05 -0.678,-0.083 -1.029,-0.1c-0.335,-0.017 -0.669,-0.017 -1.004,-0c-0.878,0.025 -1.757,0.151 -2.61,0.377c-0.853,0.2 -1.657,0.527 -2.435,0.928c-0.803,0.402 -1.531,0.879 -2.208,1.431c-0.678,0.552 -1.28,1.205 -1.807,1.882l0,23.894l-9.99,-0l0,-37.347l9.613,-0l0,3.389c0.72,-0.603 1.498,-1.138 2.334,-1.607c0.82,-0.485 1.682,-0.886 2.585,-1.204c0.887,-0.318 1.799,-0.561 2.736,-0.728c0.954,-0.168 1.899,-0.251 2.836,-0.251c0.251,-0 0.502,0.008 0.753,0.025Z"/><path d="M6.07,44.348c0.703,0.585 1.456,1.112 2.259,1.581c0.803,0.468 1.64,0.853 2.51,1.154c0.87,0.318 1.757,0.561 2.66,0.728c0.921,0.151 1.841,0.226 2.761,0.226c2.686,-0 4.744,-1.305 4.744,-3.162c-0,-5.622 -18.021,-3.614 -18.021,-15.637c0,-7.153 6.902,-11.62 14.281,-11.62c1.105,-0 2.209,0.083 3.313,0.251c1.105,0.167 2.184,0.41 3.238,0.728c1.071,0.318 2.108,0.711 3.112,1.179c1.004,0.469 1.975,1.013 2.912,1.632l-4.669,7.228c-0.518,-0.402 -1.054,-0.753 -1.606,-1.054c-0.569,-0.301 -1.155,-0.561 -1.757,-0.778c-0.602,-0.218 -1.221,-0.385 -1.857,-0.502c-0.636,-0.117 -1.272,-0.193 -1.908,-0.226c-2.761,-0 -5.07,1.079 -5.07,3.012c0,4.844 18.046,2.936 18.046,15.862c0,7.153 -7.002,11.545 -14.833,11.545c-1.339,-0.016 -2.669,-0.133 -3.991,-0.351c-1.322,-0.217 -2.61,-0.535 -3.865,-0.954c-1.272,-0.435 -2.501,-0.953 -3.689,-1.556c-1.188,-0.619 -2.326,-1.33 -3.414,-2.133l4.844,-7.153Z"/><path d="M68.666,37.421c0,0.251 -0.009,0.493 -0.026,0.727c-0.033,0.235 -0.058,0.469 -0.075,0.703c-0.033,0.251 -0.075,0.494 -0.125,0.728l-25.777,-0c0.126,1.23 0.477,2.409 1.03,3.514c0.552,1.104 1.33,2.083 2.258,2.886c0.929,0.828 1.983,1.456 3.163,1.883c1.154,0.401 2.384,0.602 3.614,0.552c0.887,-0.017 1.757,-0.126 2.61,-0.327c0.87,-0.217 1.707,-0.51 2.51,-0.878c0.803,-0.368 1.565,-0.812 2.284,-1.33c0.703,-0.519 1.355,-1.113 1.958,-1.782l5.672,5.697c-0.954,1.079 -2.033,2.033 -3.187,2.886c-1.155,0.829 -2.41,1.557 -3.715,2.134c-1.305,0.577 -2.686,1.004 -4.091,1.28c-1.406,0.301 -2.836,0.427 -4.267,0.401c-2.585,0.126 -5.17,-0.301 -7.58,-1.229c-2.434,-0.929 -4.618,-2.335 -6.45,-4.167c-1.832,-1.832 -3.263,-4.015 -4.217,-6.425c-0.953,-2.409 -1.38,-4.995 -1.254,-7.58c0,-10.391 7.052,-19.476 18.096,-19.476c10.29,-0 17.594,8.709 17.594,19.1c0,0.234 -0.009,0.468 -0.025,0.703Zm-10.19,-5.171c-0.101,-0.903 -0.377,-1.757 -0.804,-2.56c-0.401,-0.803 -0.978,-1.506 -1.631,-2.108c-0.678,-0.602 -1.456,-1.079 -2.309,-1.38c-0.828,-0.327 -1.732,-0.502 -2.635,-0.502c-0.929,-0 -1.858,0.15 -2.736,0.476c-0.879,0.302 -1.707,0.778 -2.435,1.356c-0.728,0.602 -1.33,1.305 -1.807,2.108c-0.477,0.803 -0.828,1.682 -1.004,2.61l15.361,-0Z"/><path d="M119.766,41.186l10.19,-22.79l10.366,-0l-17.117,37.347l-6.902,-0l-17.118,-37.347l10.366,-0l10.215,22.79Z" fill="currentColor"/><path d="M148.705,0.852c2.585,0.05 4.869,1.631 5.848,4.04c0.954,2.385 0.376,5.121 -1.481,6.928c-1.832,1.807 -4.593,2.334 -6.952,1.33c-2.385,-0.979 -3.941,-3.313 -3.941,-5.898c0,-0.854 0.176,-1.682 0.502,-2.485c0.327,-0.778 0.803,-1.481 1.406,-2.083c0.627,-0.603 1.33,-1.054 2.133,-1.381c0.778,-0.301 1.632,-0.476 2.485,-0.451Z"/><rect x="143.71" y="18.396" width="9.99" height="37.347" fill="currentColor"/><path d="M194.936,48.113c-0.928,1.33 -2.033,2.56 -3.287,3.639c-1.255,1.054 -2.611,1.983 -4.092,2.711c-1.455,0.728 -3.011,1.28 -4.618,1.606c-1.606,0.351 -3.263,0.502 -4.894,0.427c-5.246,0.15 -10.341,-1.858 -14.08,-5.522c-3.765,-3.664 -5.873,-8.709 -5.873,-13.955c0,-5.245 2.133,-10.265 5.923,-13.93c3.765,-3.639 8.86,-5.622 14.105,-5.471c1.506,-0 2.987,0.151 4.443,0.477c1.481,0.326 2.886,0.803 4.241,1.456c1.356,0.652 2.636,1.43 3.79,2.384c1.18,0.929 2.259,1.983 3.188,3.162l-7.078,6.225c-0.477,-0.678 -1.054,-1.305 -1.682,-1.858c-0.627,-0.527 -1.33,-1.003 -2.083,-1.405c-0.728,-0.377 -1.531,-0.678 -2.334,-0.878c-0.803,-0.201 -1.656,-0.302 -2.485,-0.327c-1.33,-0 -2.66,0.251 -3.89,0.778c-1.23,0.502 -2.359,1.28 -3.288,2.234c-0.954,0.954 -1.681,2.083 -2.158,3.313c-0.502,1.255 -0.728,2.585 -0.703,3.915c-0.05,1.356 0.201,2.711 0.703,3.966c0.502,1.28 1.255,2.409 2.208,3.363c0.979,0.954 2.134,1.707 3.389,2.184c1.28,0.502 2.635,0.703 3.99,0.652c0.879,-0.025 1.757,-0.15 2.611,-0.376c0.853,-0.226 1.681,-0.552 2.434,-0.979c0.778,-0.427 1.506,-0.954 2.159,-1.556c0.627,-0.602 1.204,-1.28 1.681,-2.008l7.68,5.773Z"/><path d="M231.179,49.794c-0.954,1.079 -2.033,2.033 -3.188,2.886c-1.154,0.829 -2.409,1.557 -3.714,2.134c-1.331,0.577 -2.686,1.004 -4.091,1.28c-1.406,0.301 -2.837,0.427 -4.267,0.401c-2.585,0.126 -5.17,-0.301 -7.58,-1.229c-2.435,-0.929 -4.618,-2.36 -6.45,-4.167c-1.832,-1.832 -3.263,-4.015 -4.217,-6.425c-0.928,-2.409 -1.355,-4.995 -1.255,-7.58c0,-10.391 7.053,-19.476 18.121,-19.476c10.266,-0 17.569,8.709 17.569,19.1c0,0.234 -0.008,0.468 -0.025,0.703c0,0.234 -0.008,0.476 -0.025,0.727c-0.017,0.235 -0.042,0.469 -0.075,0.703c-0.034,0.234 -0.067,0.469 -0.101,0.703l-25.801,-0c0.126,1.23 0.477,2.434 1.029,3.514c0.552,1.104 1.33,2.083 2.259,2.911c0.904,0.803 1.983,1.456 3.137,1.857c1.18,0.427 2.41,0.628 3.64,0.578c0.887,-0.034 1.757,-0.151 2.61,-0.352c0.87,-0.2 1.707,-0.485 2.51,-0.853c0.803,-0.368 1.564,-0.812 2.284,-1.33c0.703,-0.536 1.355,-1.13 1.957,-1.782l5.673,5.697Zm-9.287,-17.544c-0.1,-0.903 -0.376,-1.757 -0.803,-2.56c-0.401,-0.803 -0.979,-1.506 -1.631,-2.108c-0.678,-0.602 -1.456,-1.079 -2.309,-1.406c-0.829,-0.301 -1.732,-0.476 -2.636,-0.476c-0.928,-0 -1.857,0.15 -2.735,0.476c-0.879,0.302 -1.707,0.753 -2.435,1.356c-0.728,0.602 -1.33,1.305 -1.807,2.108c-0.477,0.803 -0.828,1.682 -1.004,2.61l15.36,-0Z"/><path d="M236.073,55.742l0,-37.346l9.588,-0l0,2.987c0.736,-0.603 1.514,-1.138 2.334,-1.607c0.836,-0.468 1.698,-0.87 2.585,-1.204c0.903,-0.318 1.824,-0.553 2.761,-0.703c0.937,-0.168 1.882,-0.251 2.836,-0.251c1.23,-0 2.434,0.125 3.639,0.401c1.205,0.251 2.359,0.653 3.464,1.155c1.129,0.527 2.183,1.154 3.137,1.907c0.979,0.753 1.857,1.607 2.661,2.535c0.702,0.937 1.321,1.925 1.857,2.962c0.519,1.037 0.945,2.117 1.28,3.238c0.335,1.121 0.56,2.259 0.678,3.413c0.1,1.171 0.108,2.334 0.025,3.489l0,19.024l-9.99,-0l0,-19.802c0.067,-0.636 0.067,-1.264 0,-1.883c-0.05,-0.635 -0.175,-1.255 -0.376,-1.857c-0.184,-0.602 -0.435,-1.18 -0.753,-1.732c-0.318,-0.552 -0.686,-1.062 -1.104,-1.531c-0.368,-0.351 -0.77,-0.661 -1.205,-0.928c-0.435,-0.268 -0.895,-0.494 -1.38,-0.678c-0.486,-0.184 -0.979,-0.31 -1.481,-0.377c-0.502,-0.083 -1.013,-0.117 -1.531,-0.1c-0.879,0.025 -1.732,0.151 -2.585,0.351c-0.854,0.226 -1.682,0.528 -2.46,0.929c-0.778,0.402 -1.506,0.879 -2.184,1.456c-0.677,0.552 -1.28,1.179 -1.832,1.882l0,24.27l-9.964,-0Z"/><path d="M310.766,21.458c3.589,2.46 6.35,5.948 7.957,9.989c1.581,4.066 1.932,8.483 1.003,12.725c-0.953,4.242 -3.137,8.132 -6.299,11.119c-0.377,0.351 -0.803,0.652 -1.28,0.853c-0.452,0.201 -0.979,0.326 -1.481,0.351c-0.502,0.026 -1.029,-0.025 -1.531,-0.175c-0.477,-0.151 -0.954,-0.402 -1.355,-0.703c-1.331,-1.004 -2.812,-1.782 -4.393,-2.284c-1.606,-0.527 -3.263,-0.803 -4.919,-0.803c-1.657,-0 -3.313,0.276 -4.894,0.803c-1.581,0.502 -3.087,1.28 -4.418,2.284c-0.401,0.301 -0.853,0.552 -1.355,0.703c-0.477,0.15 -1.004,0.226 -1.506,0.201c-0.502,-0.051 -1.004,-0.151 -1.481,-0.352c-0.477,-0.201 -0.903,-0.502 -1.255,-0.853c-3.187,-2.987 -5.396,-6.877 -6.35,-11.169c-0.928,-4.267 -0.577,-8.709 1.055,-12.775c1.631,-4.066 4.417,-7.555 8.056,-10.015c3.614,-2.434 7.906,-3.739 12.273,-3.739c4.368,0.025 8.584,1.38 12.173,3.84Zm-8.081,28.135c1.33,-0.527 2.534,-1.33 3.564,-2.334c1.003,-1.029 1.807,-2.234 2.359,-3.564c0.527,-1.355 0.778,-2.786 0.728,-4.216c0,-2.887 -1.13,-5.648 -3.163,-7.681c-2.058,-2.058 -4.819,-3.187 -7.705,-3.187c-2.886,-0 -5.647,1.129 -7.68,3.187c-2.058,2.033 -3.188,4.794 -3.188,7.681c-0.05,1.43 0.201,2.861 0.753,4.216c0.527,1.33 1.33,2.535 2.334,3.564c1.029,1.004 2.234,1.807 3.564,2.334c1.356,0.527 2.786,0.804 4.217,0.753c1.431,0.051 2.861,-0.226 4.217,-0.753Z"/><path d="M339.956,55.743l-7.429,-0l-14.808,-37.347l9.964,-0l8.132,21.334l7.956,-21.334l8.333,-0l7.881,21.334l8.207,-21.334l9.964,-0l-14.833,37.347l-7.43,-0l-7.956,-21.284l-7.981,21.284Z" fill="currentColor"/><path d="M378.256,51.501l-0.828,-0l0,1.581l-0.728,-0l0,-4.317l1.757,-0c0.184,-0 0.36,0.034 0.527,0.101c0.167,0.067 0.318,0.167 0.452,0.301c0.134,0.134 0.234,0.284 0.301,0.452c0.067,0.167 0.101,0.343 0.101,0.527c0,0.15 -0.017,0.284 -0.051,0.401c-0.05,0.134 -0.108,0.26 -0.175,0.377c-0.084,0.1 -0.176,0.192 -0.276,0.276c-0.101,0.1 -0.218,0.176 -0.352,0.226l0.979,1.681l-0.778,-0l-0.929,-1.606Zm-0.828,-0.653l1.029,-0c0.176,-0 0.377,-0.075 0.502,-0.2c0.151,-0.151 0.226,-0.327 0.226,-0.527c0,-0.176 -0.075,-0.377 -0.226,-0.502c-0.125,-0.151 -0.326,-0.226 -0.502,-0.226l-1.029,-0l0,1.455Z"/><path d="M379.938,46.706c0.577,0.251 1.079,0.578 1.531,1.004c0.427,0.452 0.778,0.954 1.004,1.531c0.226,0.553 0.351,1.155 0.351,1.782c0,1.883 -1.129,3.564 -2.886,4.292c-1.732,0.728 -3.74,0.327 -5.07,-1.004c-1.33,-1.33 -1.732,-3.338 -1.004,-5.07c0.703,-1.756 2.409,-2.886 4.292,-2.886c0.627,-0 1.23,0.126 1.782,0.351Zm-3.313,0.603c-0.477,0.201 -0.929,0.477 -1.305,0.853c-0.377,0.377 -0.653,0.828 -0.854,1.305c-0.2,0.502 -0.326,1.004 -0.326,1.531c0,1.632 0.979,3.087 2.485,3.715c1.506,0.627 3.238,0.276 4.392,-0.879c1.13,-1.129 1.481,-2.861 0.853,-4.367c-0.627,-1.506 -2.083,-2.484 -3.714,-2.484c-0.527,-0 -1.054,0.125 -1.531,0.326Z"/></g></svg>