<svg width="100%" height="100%" viewBox="0 0 300 59" version="1.1" xmlns="http://www.w3.org/2000/svg" xmlns:xlink="http://www.w3.org/1999/xlink" xml:space="preserve" xmlns:serif="http://www.serif.com/" style="fill-rule:evenodd;clip-rule:evenodd;stroke-linejoin:round;stroke-miterlimit:2;"><rect id="Artboard1" x="0" y="0" width="299.968" height="58.772" style="fill:none;"/><path d="M199.435,50.198c3.951,0.083 7.82,-1.399 10.701,-4.115l5.268,5.679c-3.458,3.622 -8.314,6.256 -15.886,6.256c-12.923,-0 -21.237,-8.56 -21.237,-20.166c-0.247,-10.948 8.478,-19.92 19.343,-20.166l0.659,-0c12.84,-0 20.084,9.712 19.425,23.294l-30.208,-0c1.07,5.679 5.021,9.301 11.935,9.218m9.219,-15.556c-0.823,-5.268 -3.951,-9.137 -10.207,-9.137c-5.844,0 -9.877,3.293 -10.947,9.137l21.154,-0Zm-208,15.145l23.294,-23.706l-22.718,0l0,-7.408l33.501,0l-0,7.573l-23.294,23.705l23.623,0l0,7.408l-34.406,0l0,-7.572Zm60.581,0.411c3.951,0.083 7.82,-1.399 10.618,-4.115l5.268,5.679c-3.457,3.622 -8.313,6.256 -15.886,6.256c-12.923,-0 -21.236,-8.56 -21.236,-20.166c-0.247,-10.948 8.478,-19.92 19.343,-20.166l0.658,-0c12.841,-0 20.084,9.712 19.426,23.294l-30.126,-0c1.07,5.679 5.021,9.301 11.935,9.218m9.219,-15.556c-0.823,-5.268 -3.951,-9.137 -10.207,-9.137c-5.844,0 -9.877,3.293 -10.947,9.137l21.154,-0Zm59.428,3.292c0,-12.347 9.219,-20.084 19.426,-20.084c4.938,-0.082 9.63,2.058 12.923,5.762l-0,-22.8l8.231,-0l-0,56.465l-8.231,0l-0,-5.35c-3.21,3.869 -7.985,6.173 -13.005,6.091c-9.878,-0 -19.344,-7.82 -19.344,-20.084m32.76,-0.082c-0.164,-6.75 -5.844,-12.1 -12.593,-11.935c-6.75,0.164 -12.1,5.844 -11.935,12.593c0.164,6.667 5.597,11.935 12.264,11.935c7.079,0 12.264,-5.597 12.264,-12.593m60.499,11.194l7.49,-3.869c1.976,3.622 5.844,5.762 9.96,5.68c4.691,-0 7.078,-2.387 7.078,-5.103c0,-3.128 -4.527,-3.787 -9.383,-4.774c-6.585,-1.4 -13.417,-3.54 -13.417,-11.524c0,-6.091 5.844,-11.77 14.981,-11.688c7.243,-0 12.593,2.881 15.639,7.49l-6.914,3.786c-1.976,-2.88 -5.268,-4.527 -8.725,-4.444c-4.445,-0 -6.667,2.14 -6.667,4.609c-0,2.799 3.539,3.539 9.136,4.774c6.338,1.399 13.582,3.457 13.582,11.524c-0,5.35 -4.692,12.511 -15.722,12.429c-8.066,0.082 -13.746,-3.128 -17.038,-8.89m55.066,-8.972l-6.503,7.161l0,10.042l-8.231,0l0,-56.465l8.231,-0l0,36.957l17.45,-19.178l10.042,-0l-15.145,16.544l15.557,22.142l-9.301,0l-12.1,-17.203Zm-173.182,-22.306c-9.795,-0 -18.027,6.338 -18.027,16.874l0,22.635l8.396,0l0,-21.565c0,-6.338 3.622,-10.125 9.877,-10.125c6.256,0 9.302,3.787 9.302,10.125l-0,21.565l8.313,0l0,-22.635c0.082,-10.536 -8.149,-16.874 -17.861,-16.874" fill='currentColor' /></svg>