<svg width="300" height="77" viewBox="0 0 300 77" fill="none" xmlns="http://www.w3.org/2000/svg">
<g clip-path="url(#clip0_172_70)">
<path fill-rule="evenodd" clip-rule="evenodd" d="M23.4716 5C10.5086 5 0 15.5086 0 28.4716C0 41.4346 10.5086 51.9432 23.4716 51.9432C36.4346 51.9432 46.9432 41.4346 46.9432 28.4716C46.9432 15.5086 36.4346 5 23.4716 5ZM35.7086 24.2296H23.1802C22.9358 24.2296 22.7704 24.479 22.8667 24.7037L26.8321 33.6864L26.8519 33.7358C27.1358 34.479 27.284 35.279 27.2617 36.1161C27.2601 36.1786 27.254 36.2412 27.248 36.3037L27.2425 36.362L27.2395 36.3975C27.1185 38.1654 26.3062 39.7975 24.916 41.0173C23.5259 42.237 21.721 42.9012 19.8148 42.9012C19.7432 42.9012 19.6716 42.9012 19.6 42.8988C17.6148 42.8469 15.7654 42.0815 14.3877 40.7432C12.9926 39.3852 12.2494 37.6049 12.2988 35.7284C12.3481 33.8519 13.1802 32.1111 14.6444 30.8296C16.0889 29.5654 17.9753 28.8938 19.9605 28.9481C20.5012 28.963 21.037 29.0444 21.5605 29.1802C22.0321 29.3037 22.4346 28.8198 22.2494 28.3704L16.9333 15.837C16.5728 14.9877 17.1975 14.0444 18.121 14.0444H31.2741C31.4963 14.0444 31.6963 14.1753 31.7852 14.3778L35.9556 23.8469C36.0346 24.0296 35.9037 24.2321 35.7037 24.2321L35.7086 24.2296ZM20.573 32.6963H16.3977C16.0743 32.6963 15.8595 33.0321 15.9977 33.3259L18.5928 38.8913C18.6644 39.0469 18.8224 39.1481 18.9928 39.1481H23.1681C23.4916 39.1481 23.7064 38.8123 23.5681 38.5185L20.973 32.9531C20.9014 32.7975 20.7434 32.6963 20.573 32.6963ZM177.22 16.9655C177.59 19.2223 175.666 21.1457 173.41 20.7754C172.042 20.5507 170.941 19.4494 170.716 18.0815C170.345 15.8247 172.269 13.9013 174.526 14.2716C175.894 14.4963 176.995 15.5976 177.22 16.9655ZM297.01 30.8345C296.648 30.301 296.233 29.7798 295.822 29.2616C294.711 27.8636 293.617 26.4879 293.617 24.9531C293.617 24.2963 293.963 23.5876 294.271 23.2889C294.185 23.2049 293.918 23.1259 293.565 23.1259C292.113 23.1259 290.743 23.7432 289.689 24.7234C288.707 25.6352 287.49 27.8998 286.84 29.1106L286.8 29.1852C286.464 29.8095 286.112 30.4921 285.744 31.2043L285.742 31.2077C284.388 33.8298 282.827 36.8537 281.148 38.8568C279.175 41.2074 277.18 41.6839 275.353 41.6839C274.605 41.6839 273.516 41.5728 272.686 41.2049C271.543 40.6963 270.464 39.716 269.955 38.5605C269.536 37.6049 269.35 36.5827 269.341 35.5457C270.015 36.4074 272.227 37.2543 274.059 37.1753C278.336 36.9926 281.471 33.7852 282.071 30.8518C283.081 25.9185 279.869 23.6123 276.024 23.7778C270.99 23.9926 267.417 28.3383 265.479 32.595C265.1 33.4267 264.769 34.2776 264.438 35.1283L264.437 35.1289C263.954 36.3694 263.471 37.6097 262.842 38.7901C262.071 40.2346 260.861 42.1852 258.997 42.1852C256.891 42.1852 257.108 39.2741 257.274 37.9012C257.668 34.6358 260.316 28.1167 261.522 25.1467C261.76 24.5617 261.942 24.1144 262.039 23.8568C262.279 23.2271 263.039 21.3383 263.876 19.2716L271.266 19.195C272.624 19.1704 273.738 18.0741 273.8 16.7284L264.963 16.5975C265.886 14.3234 266.666 12.4148 266.666 12.4148H263.654L263.602 12.5255C262.949 13.918 262.319 15.2612 261.703 16.5481L212.61 15.8197C212.393 15.8197 212.183 15.8193 211.978 15.819C207.58 15.8107 206.044 15.8078 205.82 19.8592L260.363 19.3037C256.97 26.1185 253.824 31.0148 249.21 32.958C248.894 29.2271 247.034 25.9555 243.928 24.5333C242.743 23.9901 241.484 23.758 240.207 23.7901C235.476 23.9111 231.239 27.6765 228.916 33.1679C228.561 34.007 228.246 34.7683 227.96 35.4588C227.258 37.1577 226.733 38.4276 226.217 39.3703C225.491 40.6938 224.531 42.3506 222.75 42.3506C220.97 42.3506 221.62 40.042 221.95 38.9605C222.457 37.3002 222.751 36.4398 222.977 35.7753C223.356 34.663 223.548 34.1 224.242 31.2543C225.101 27.7284 223.563 23.8469 219.876 23.8469C213.7 23.8469 211.284 29.2774 208.33 35.9193L208.311 35.9629C210.995 28.6074 210.432 23.8469 205.817 23.8469C203.802 23.8469 201.405 25.4296 199.089 29.3407C198.607 30.1529 198.142 30.9753 197.68 31.7911L197.679 31.792C195.627 35.4154 193.65 38.9062 190.716 40.7704C189.182 41.7852 186.802 41.9629 185.308 41.3876C182.378 40.2592 181.38 36.1086 183.022 31.8592C184.202 28.8074 186.731 26.0691 188.997 26.0691C190.881 26.0691 190.585 28.4173 189.676 30.3086C189.345 30.995 188.797 31.7802 188.39 32.3284C188.076 32.7481 188.2 33.358 188.664 33.6049C189.931 34.2815 191.531 34.1531 192.708 33.3975C193.978 32.5852 194.911 31.3259 195.19 29.8494C195.466 28.3926 195.128 26.8271 194.118 25.7136C192.661 24.1062 190.173 23.6271 188.096 23.8222C183.666 24.2395 179.541 28.4568 177.852 32.9778C177.788 33.1353 177.724 33.2962 177.659 33.4597L177.657 33.4651C176.188 37.1385 174.171 42.1827 171.237 42.1827C169.333 42.1827 168.837 40.0987 170.306 35.8666C171.033 33.7727 172.196 30.9438 173.393 28.0342C173.969 26.6345 174.552 25.2161 175.099 23.8518L169.264 23.8469C169.264 23.8469 164.341 34.5901 159.918 40.121C160.33 35.7184 158.427 32.9381 157.17 31.1006L157.166 31.0951C157.104 31.0043 157.044 30.9159 156.985 30.8296C156.623 30.2961 156.209 29.7749 155.797 29.2567C154.686 27.8587 153.592 26.4829 153.592 24.9481C153.592 24.2913 153.938 23.5827 154.247 23.2839C154.16 23.2 153.894 23.121 153.541 23.121C152.091 23.121 150.718 23.7383 149.664 24.7185C148.822 25.5004 147.644 27.5925 146.887 28.9356C146.743 29.1914 146.614 29.4201 146.506 29.6074C146.225 30.0937 145.852 30.8392 145.408 31.7263C143.545 35.4512 140.432 41.6716 137.666 41.6716C135.642 41.6716 135.632 39.9753 136.034 38.3901C136.368 37.079 137.513 33.6666 141.442 23.8469L134.37 23.842C134.37 23.842 129.595 34.358 128.143 37.2741C126.928 39.7136 125.864 41.6691 124.071 41.6691C122.049 41.6691 122.802 39.1555 123.575 37.2247C123.809 36.6402 124.079 35.9685 124.369 35.2491L124.37 35.2449C125.088 33.4609 125.923 31.3838 126.62 29.6148C128.155 25.7136 125.074 23.6444 122.089 23.6444C120.239 23.6444 118.153 24.7926 117.279 26.6568C117.647 26.4024 118.674 26.2 119.316 26.6568C119.708 26.9333 120.057 27.9185 119.824 28.5975C119.089 30.7566 118.395 32.3796 117.716 33.9663L117.716 33.9664C116.853 35.9853 116.015 37.9456 115.148 40.8765C114.118 44.358 115.708 48.6074 119.395 48.6074C125.585 48.6074 128.069 43.5679 131.079 36.1679C128.395 43.5234 129.6 48.6074 134.881 48.6074C136.778 48.6074 139.059 47.3975 141.259 44.7506C144.133 41.2963 147.503 34.2815 149.543 30C150.615 31.1333 152.857 33.9407 153.499 36.0321C154.358 38.8222 153.518 41.6716 150.78 41.6716C148.834 41.6716 148.017 40.0642 147.933 39.0099C145.881 39.958 144.812 42.2395 145.291 44.4321C145.844 46.9531 148.242 48.5284 150.721 48.6074H151.091C156.062 48.6074 160.155 44.5481 163.402 39.7531C162.449 44.3358 164.212 48.5975 168.311 48.5975C172.716 48.5975 175.076 45.0543 176.936 40.7506C177.486 43.9481 179.192 46.595 181.96 47.8617C186.365 49.879 191.296 47.5407 194.864 42.9555C196.512 40.8388 197.95 38.0693 199.224 35.6145C200.882 32.4226 202.263 29.7629 203.469 29.7629C204.871 29.7629 204.615 31.8617 203.229 35.1086C202.476 36.8722 201.427 39.5109 200.052 42.97L200.052 42.971C199.41 44.587 198.696 46.3821 197.908 48.3506H205.005C205.005 48.3506 209.657 37.7037 211.113 34.8123C212.341 32.3778 213.79 29.8494 215.412 29.8494C217.644 29.8494 216.64 32.802 216.01 34.6544L216.01 34.6548C215.966 34.7821 215.925 34.9042 215.886 35.0197C215.187 37.1136 214.666 38.7432 214.066 40.6765C212.454 45.8592 215.716 48.5975 219.173 48.5975C222.629 48.5975 225.42 46.4518 227.279 43.2617C227.647 42.6296 227.982 41.9704 228.289 41.3037C228.97 44.2469 230.696 46.6716 233.291 47.8617C238.385 50.195 244.891 46.8815 247.827 40.4617C248.227 39.5901 248.536 38.7037 248.765 37.8197C250.353 37.2741 251.859 36.358 253.141 35.0395C249.252 40.8691 250.543 48.6099 256.064 48.6099C260.358 48.6099 262.711 45.237 264.548 41.0765C265.192 44.1234 266.938 46.6444 269.6 47.8642C272.081 49 274.928 48.7481 277.358 47.6024C279.904 46.4024 281.985 44.3234 283.397 41.9062C284.837 39.4444 286.19 36.9531 287.447 34.3901L287.616 34.0472C288.192 32.8789 289.593 30.0396 289.555 30C290.627 31.1333 292.869 33.9407 293.511 36.0321C294.37 38.8222 293.531 41.6716 290.792 41.6716C288.847 41.6716 288.029 40.0642 287.945 39.0099C286.587 39.637 285.62 40.921 285.262 42.3605C284.407 45.8 287.706 48.6074 290.913 48.6074C294.521 48.6074 298.936 46.2271 299.79 41.1531C300.631 36.1507 298.533 33.0821 297.181 31.104L297.18 31.1022C297.116 31.0081 297.053 30.9164 296.992 30.8271L297.01 30.8345ZM236.632 41.3852C233.701 40.2568 232.703 36.1062 234.345 31.8568C234.595 31.2123 234.894 30.6049 235.227 30.0444C235.281 31.3358 235.666 32.6271 236.328 33.7457C237.968 36.3679 240.716 37.9432 243.681 38.3308C241.785 41.0074 238.95 42.279 236.632 41.3852ZM245.526 33.9827C245.279 34.0148 245.032 34.0395 244.79 34.0543C242.706 34.1284 240.36 33.5704 239.01 31.9432C238.681 31.5605 238.41 31.0642 238.222 30.5185C237.291 27.8049 239.899 25.1358 242.587 26.1407C242.6 26.1457 242.612 26.1506 242.624 26.1531C245.103 27.1086 246.234 30.4123 245.528 33.9802L245.526 33.9827ZM274.815 25.9753C275.778 25.7284 276.948 25.9136 277.489 26.8296C278.113 27.8864 277.945 29.4839 277.466 30.5062C276.713 32.1185 275.661 33.2987 273.916 34.1383C272.506 34.8148 270.526 35.2197 269.328 35.1728C269.378 33.4987 269.866 31.8074 270.573 30.3407C271.41 28.6074 272.812 26.4864 274.815 25.9704V25.9753ZM108.958 16.2938C111.671 14.6025 115.429 13.8321 118.163 13.8321L118.17 13.8346C114.721 22.163 107.876 41.1309 110.118 48.3654H101.42C101.481 40.1358 108.605 22.1753 110.165 18.3333C108.615 19.5802 105.454 22.5975 101.931 28.6716C98.8714 33.9457 95.2146 42.2864 93.706 48.3654H86.8121C86.8121 48.3654 89.664 38.6914 90.3455 33.8395C90.4331 33.2172 90.5274 32.5836 90.6227 31.9436C90.9489 29.7525 91.2862 27.4862 91.4047 25.3383C91.4193 25.0733 91.4358 24.8044 91.4524 24.5325C91.5763 22.5085 91.7103 20.3191 91.1726 18.3753C90.8961 18.5728 90.6936 18.8099 90.5035 19.0914C89.6541 20.3481 89.0862 21.8148 88.585 23.2395C88.3591 23.8808 88.0916 24.6725 87.815 25.4912C87.4143 26.6771 86.9945 27.9198 86.6541 28.8444C85.5208 31.9185 84.7627 33.9259 83.2294 37.0296C80.0862 43.3975 74.9874 48.6173 67.4837 48.6173C61.4171 48.6173 58.3035 44.8272 56.9751 42.2988L64.5331 34.7407C64.5331 34.7407 65.2442 38.8247 70.9479 38.8247C74.8689 38.8247 78.2245 34.9383 80.4739 30.7531C81.1184 29.5526 81.7042 28.3319 82.2584 27.1772C82.7084 26.2394 83.1376 25.3452 83.5603 24.5407C83.6685 24.3347 83.7827 24.1138 83.9029 23.8813C85.2419 21.2907 87.3272 17.2562 90.2047 16.2593C89.6763 15.4864 88.9553 14.7975 87.9726 14.2321C85.1529 12.6074 81.7084 12.1136 78.6047 12.9802C75.1924 13.9333 71.6195 16.958 72.622 20.837C73.3726 23.7481 77.1874 25.9802 79.7949 23.7926C79.7949 23.7926 78.943 30.7728 72.8986 30.7728C68.2171 30.7728 63.9529 26.516 64.3776 20.8123C64.9504 13.1111 72.9751 8.77284 80.0788 8.35802C85.9134 8.01728 92.7158 10.3432 95.0269 16.0938C96.5134 19.7877 96.6418 23.9605 96.4739 27.8864C96.3973 29.6765 96.2492 31.4642 96.0442 33.2444C97.4541 30.1432 99.0023 27.0617 100.765 24.5457C102.933 21.4518 105.997 18.1383 108.958 16.2938Z" fill="white"/>
<path d="M67.4967 70H65.7095V59.8114H70.1852C72.3237 59.8114 73.5152 61.2778 73.5152 63.0039C73.5152 64.73 72.3084 66.1965 70.1852 66.1965H67.4967V70ZM71.6822 63.0039C71.6822 62.0263 70.9489 61.3848 69.9408 61.3848H67.4967V64.6231H69.9408C70.9489 64.6231 71.6822 63.9815 71.6822 63.0039ZM84.4125 70H82.3504L80.0896 66.1965H78.3177V70H76.5305V59.8114H81.0062C83.0225 59.8114 84.3362 61.1251 84.3362 63.0039C84.3362 64.8217 83.1447 65.7993 81.9227 65.9979L84.4125 70ZM82.5031 63.0039C82.5031 62.0263 81.7699 61.3848 80.7617 61.3848H78.3177V64.6231H80.7617C81.7699 64.6231 82.5031 63.9815 82.5031 63.0039ZM96.815 70H94.8597L94.1113 68.0448H89.2843L88.5358 70H86.5805L90.5827 59.8114H92.8129L96.815 70ZM93.6072 66.4714L91.6978 61.3237L89.7884 66.4714H93.6072ZM103.73 70.1833C100.797 70.1833 98.46 68.0448 98.46 64.9133C98.46 61.7819 100.797 59.6434 103.73 59.6434C105.869 59.6434 107.136 60.7126 107.9 61.9347L106.373 62.7137C105.884 61.8736 104.906 61.232 103.73 61.232C101.79 61.232 100.293 62.7748 100.293 64.9133C100.293 67.0519 101.79 68.5947 103.73 68.5947C104.906 68.5947 105.884 67.9684 106.373 67.113L107.9 67.892C107.121 69.114 105.869 70.1833 103.73 70.1833ZM115.074 70H113.287V61.3848H110.201V59.8114H118.16V61.3848H115.074V70ZM122.989 70H121.202V59.8114H122.989V70ZM131.494 70.1833C128.561 70.1833 126.224 68.0448 126.224 64.9133C126.224 61.7819 128.561 59.6434 131.494 59.6434C133.633 59.6434 134.9 60.7126 135.664 61.9347L134.137 62.7137C133.648 61.8736 132.67 61.232 131.494 61.232C129.554 61.232 128.057 62.7748 128.057 64.9133C128.057 67.0519 129.554 68.5947 131.494 68.5947C132.67 68.5947 133.648 67.9684 134.137 67.113L135.664 67.892C134.885 69.114 133.633 70.1833 131.494 70.1833ZM145.603 70H138.622V59.8114H145.603V61.3848H140.409V64.0274H145.496V65.6007H140.409V68.4266H145.603V70ZM148.675 69.0988C148.675 68.5183 149.164 68.0295 149.745 68.0295C150.325 68.0295 150.814 68.5183 150.814 69.0988C150.814 69.6792 150.325 70.168 149.745 70.168C149.164 70.168 148.675 69.6792 148.675 69.0988ZM161.475 70H159.688V59.8114H164.164C166.302 59.8114 167.494 61.2778 167.494 63.0039C167.494 64.73 166.287 66.1965 164.164 66.1965H161.475V70ZM165.661 63.0039C165.661 62.0263 164.928 61.3848 163.919 61.3848H161.475V64.6231H163.919C164.928 64.6231 165.661 63.9815 165.661 63.0039ZM176.787 70H170.509V59.8114H172.296V68.4266H176.787V70ZM189.093 70H187.138L186.389 68.0448H181.562L180.814 70H178.859L182.861 59.8114H185.091L189.093 70ZM185.885 66.4714L183.976 61.3237L182.066 66.4714H185.885ZM195.408 70H193.621V65.7688L189.665 59.8114H191.712L194.522 64.1801L197.302 59.8114H199.349L195.408 65.7688V70ZM200.325 69.0988C200.325 68.5183 200.814 68.0295 201.394 68.0295C201.975 68.0295 202.463 68.5183 202.463 69.0988C202.463 69.6792 201.975 70.168 201.394 70.168C200.814 70.168 200.325 69.6792 200.325 69.0988ZM213.125 70H211.338V59.8114H215.813C217.952 59.8114 219.143 61.2778 219.143 63.0039C219.143 64.73 217.937 66.1965 215.813 66.1965H213.125V70ZM217.31 63.0039C217.31 62.0263 216.577 61.3848 215.569 61.3848H213.125V64.6231H215.569C216.577 64.6231 217.31 63.9815 217.31 63.0039ZM229.139 70H222.159V59.8114H229.139V61.3848H223.946V64.0274H229.032V65.6007H223.946V68.4266H229.139V70ZM240.384 70H238.322L236.061 66.1965H234.289V70H232.502V59.8114H236.978C238.994 59.8114 240.308 61.1251 240.308 63.0039C240.308 64.8217 239.116 65.7993 237.894 65.9979L240.384 70ZM238.475 63.0039C238.475 62.0263 237.742 61.3848 236.734 61.3848H234.289V64.6231H236.734C237.742 64.6231 238.475 63.9815 238.475 63.0039ZM245.409 70H243.622V59.8114H250.602V61.3848H245.409V64.0274H250.495V65.6007H245.409V70ZM253.268 64.9133C253.268 61.8736 255.422 59.6434 258.477 59.6434C261.532 59.6434 263.686 61.8736 263.686 64.9133C263.686 67.9531 261.532 70.1833 258.477 70.1833C255.422 70.1833 253.268 67.9531 253.268 64.9133ZM261.853 64.9133C261.853 62.8054 260.524 61.232 258.477 61.232C256.415 61.232 255.101 62.8054 255.101 64.9133C255.101 67.006 256.415 68.5947 258.477 68.5947C260.524 68.5947 261.853 67.006 261.853 64.9133ZM274.816 70H272.754L270.493 66.1965H268.721V70H266.934V59.8114H271.41C273.426 59.8114 274.74 61.1251 274.74 63.0039C274.74 64.8217 273.548 65.7993 272.326 65.9979L274.816 70ZM272.907 63.0039C272.907 62.0263 272.174 61.3848 271.165 61.3848H268.721V64.6231H271.165C272.174 64.6231 272.907 63.9815 272.907 63.0039ZM288.639 70H286.852V62.286L283.721 70H282.957L279.841 62.286V70H278.054V59.8114H280.574L283.339 66.67L286.119 59.8114H288.639V70ZM292.045 69.0988C292.045 68.5183 292.534 68.0295 293.114 68.0295C293.695 68.0295 294.184 68.5183 294.184 69.0988C294.184 69.6792 293.695 70.168 293.114 70.168C292.534 70.168 292.045 69.6792 292.045 69.0988Z" fill="white"/>
</g>
<defs>
<clipPath id="clip0_172_70">
<rect width="300" height="77" fill="white"/>
</clipPath>
</defs>
</svg>
