<?xml version="1.0" encoding="UTF-8" standalone="no"?>
<!-- Created with Inkscape (http://www.inkscape.org/) -->

<svg
   xmlns:dc="http://purl.org/dc/elements/1.1/"
   xmlns:cc="http://creativecommons.org/ns#"
   xmlns:rdf="http://www.w3.org/1999/02/22-rdf-syntax-ns#"
   xmlns:svg="http://www.w3.org/2000/svg"
   xmlns="http://www.w3.org/2000/svg"
   xmlns:sodipodi="http://sodipodi.sourceforge.net/DTD/sodipodi-0.dtd"
   xmlns:inkscape="http://www.inkscape.org/namespaces/inkscape"
   width="1000"
   height="222.2832"
   viewBox="0 0 264.58333 58.812429"
   version="1.1"
   id="svg8"
   inkscape:version="0.92.4 (5da689c313, 2019-01-14)"
   sodipodi:docname="B.svg">
  <defs
     id="defs2">
    <clipPath
       clipPathUnits="userSpaceOnUse"
       id="clipPath6103">
      <path
         d="m 36.222,34.44 h 69.179 V 71.939 H 36.222 Z"
         id="path6101"
         inkscape:connector-curvature="0" />
    </clipPath>
    <clipPath
       clipPathUnits="userSpaceOnUse"
       id="clipPath23629">
      <path
         d="M 0,792 H 612 V 0 H 0 Z"
         id="path23627"
         inkscape:connector-curvature="0" />
    </clipPath>
    <clipPath
       clipPathUnits="userSpaceOnUse"
       id="clipPath24683">
      <path
         d="m 22.692,-7 h 88 v 144 h -88 z"
         id="path24681"
         inkscape:connector-curvature="0" />
    </clipPath>
    <clipPath
       clipPathUnits="userSpaceOnUse"
       id="clipPath24691">
      <path
         d="m 28.692,30.984 h 79.4635 v 84.0095 H 28.692 Z"
         id="path24689"
         inkscape:connector-curvature="0" />
    </clipPath>
    <clipPath
       clipPathUnits="userSpaceOnUse"
       id="clipPath26172">
      <path
         d="M 18,698.928 H 284.628 V 774 H 18 Z"
         id="path26170"
         inkscape:connector-curvature="0" />
    </clipPath>
    <clipPath
       clipPathUnits="userSpaceOnUse"
       id="clipPath26156">
      <path
         d="M 18.025,698.928 H 284.627 V 774 H 18.025 Z"
         id="path26154"
         inkscape:connector-curvature="0" />
    </clipPath>
    <clipPath
       clipPathUnits="userSpaceOnUse"
       id="clipPath26088">
      <path
         d="M 18,698.928 H 284.628 V 774 H 18 Z"
         id="path26086"
         inkscape:connector-curvature="0" />
    </clipPath>
  </defs>
  <sodipodi:namedview
     id="base"
     pagecolor="#ffffff"
     bordercolor="#666666"
     borderopacity="1.0"
     inkscape:pageopacity="0.82352941"
     inkscape:pageshadow="2"
     inkscape:zoom="0.49497475"
     inkscape:cx="1305.3704"
     inkscape:cy="-317.47379"
     inkscape:document-units="px"
     inkscape:current-layer="layer1"
     showgrid="false"
     units="px"
     inkscape:window-width="1920"
     inkscape:window-height="1017"
     inkscape:window-x="1912"
     inkscape:window-y="-8"
     inkscape:window-maximized="1"
     inkscape:pagecheckerboard="true"
     fit-margin-top="0"
     fit-margin-left="0"
     fit-margin-right="0"
     fit-margin-bottom="0">
    <inkscape:grid
       type="xygrid"
       id="grid28006"
       originx="-33.843334"
       originy="-654.79833" />
  </sodipodi:namedview>
  <metadata
     id="metadata5">
    <rdf:RDF>
      <cc:Work
         rdf:about="">
        <dc:format>image/svg+xml</dc:format>
        <dc:type
           rdf:resource="http://purl.org/dc/dcmitype/StillImage" />
        <dc:title></dc:title>
      </cc:Work>
    </rdf:RDF>
  </metadata>
  <g
     inkscape:label="Layer 1"
     inkscape:groupmode="layer"
     id="layer1"
     transform="translate(73.365426,2555.3627)">
    <path
       class="cls-1"
       d="m 145.40107,-2533.3807 c 0,-3.0741 -2.41451,-5.0528 -6.80774,-5.0528 h -9.37537 v 10.6003 h 9.09269 c 4.19301,-0.012 7.09042,-1.908 7.09042,-5.5475 z"
       id="path8"
       inkscape:connector-curvature="0"
       style="fill:none;stroke-width:1.17781043" />
    <path
       class="cls-1"
       d="m 91.916704,-2532.2382 c 0,-3.8161 -2.89741,-6.1011 -7.86777,-6.1011 h -9.48137 v 12.4259 h 9.42248 c 4.62879,0 7.92666,-2.3556 7.92666,-6.3248 z"
       id="path10"
       inkscape:connector-curvature="0"
       style="fill:none;stroke-width:1.17781043" />
    <path
       class="cls-1"
       d="m 138.94667,-2524.7355 h -9.72871 v 10.8476 h 10.31762 c 4.71124,0 7.54976,-2.0612 7.54976,-5.5357 0,-3.4746 -2.77963,-5.3119 -8.13867,-5.3119 z"
       id="path12"
       inkscape:connector-curvature="0"
       style="fill:none;stroke-width:1.17781043" />
    <path
       class="cls-1"
       d="m 174.88167,-2538.351 h -7.2082 v 24.3335 h 7.2082 c 7.77355,0 12.73213,-5.2766 12.73213,-12.1196 0,-6.8431 -4.95858,-12.2139 -12.73213,-12.2139 z"
       id="path14"
       inkscape:connector-curvature="0"
       style="fill:none;stroke-width:1.17781043" />
    <path
       class="cls-2"
       d="m -68.100616,-2526.3727 a 9.7758264,9.7758264 0 0 0 7.86778,3.5334 8.4213444,8.4213444 0 0 0 6.41906,-2.4734 8.2446729,8.2446729 0 0 0 2.35562,-5.889 7.0668625,7.0668625 0 0 0 -2.27317,-5.5475 7.1964215,7.1964215 0 0 0 -4.8408,-2.0141 10.906524,10.906524 0 0 0 -2.10828,0.2709 8.8453561,8.8453561 0 0 1 -1.68427,0.318 q -1.87272,0 -1.87272,-2.2614 0,-3.8043 3.79255,-6.5368 a 17.89094,17.89094 0 0 1 2.27317,-1.3898 18.939191,18.939191 0 0 1 7.83244,-1.5547 27.089639,27.089639 0 0 1 15.31154,4.4521 l -3.34498,4.8055 4.64057,3.0623 6.28951,-8.9749 -2.02584,-1.5901 a 32.472232,32.472232 0 0 0 -20.90613,-7.1964 c -12.24923,0 -20.81191,7.5144 -20.81191,18.2796 v 0.1413 c 0,0.2003 0,0.4123 0,0.6243 0.0118,4.2283 1.08358,7.5733 3.08586,9.9407 z"
       id="path16"
       inkscape:connector-curvature="0"
       style="fill:#1e7b85;stroke-width:1.17781043" />
    <path
       class="cls-2"
       d="m -36.441076,-2529.1877 a 8.4213444,8.4213444 0 0 0 -6.41906,2.4734 8.2446729,8.2446729 0 0 0 -2.35562,5.8891 7.0668625,7.0668625 0 0 0 2.28495,5.5121 7.1964215,7.1964215 0 0 0 4.89969,2.0612 10.859412,10.859412 0 0 0 2.10828,-0.2709 8.8335779,8.8335779 0 0 1 1.68427,-0.318 q 1.87272,0 1.87272,2.2614 a 7.0668625,7.0668625 0 0 1 -0.17667,1.5783 c -2.07295,5.0881 -7.40843,8.0091 -15.11131,8.0091 a 29.881049,29.881049 0 0 1 -17.92627,-5.8891 l 4.193,-4.8997 -4.42857,-3.4156 -7.54976,8.9396 1.91983,1.7196 a 35.487427,35.487427 0 0 0 23.73288,8.9867 c 0.98936,0 1.94339,0 2.87386,-0.1296 a 22.378397,22.378397 0 0 0 13.75682,-5.359 q 5.50038,-4.9586 5.50038,-13.698 0,-6.3366 -2.99164,-9.8936 a 9.7758264,9.7758264 0 0 0 -7.86778,-3.557 z"
       id="path18"
       inkscape:connector-curvature="0"
       style="fill:#1e7b85;stroke-width:1.17781043" />
    <rect
       class="cls-3"
       x="109.43073"
       y="-2541.5547"
       width="3.4745407"
       height="30.740852"
       id="rect20"
       style="fill:#00293f;stroke-width:1.17781043" />
    <path
       class="cls-3"
       d="m 144.03481,-2526.7025 a 7.4437617,7.4437617 0 0 0 4.87614,-7.1611 c 0,-4.7112 -3.95745,-7.6911 -10.01139,-7.6911 h -13.09725 v 30.7409 h 13.6626 c 6.7253,0 11.15386,-3.1212 11.15386,-8.4331 0,-4.3108 -2.94452,-6.3602 -6.58396,-7.4556 z m -14.81685,-11.731 h 9.42248 c 4.39324,0 6.80775,1.9787 6.80775,5.0528 0,3.6512 -2.89742,5.5357 -7.06687,5.5357 h -9.16336 v -10.6003 z m 10.31762,24.5103 h -10.31762 v -10.8123 h 9.70516 c 5.35903,0 8.174,1.9316 8.174,5.3119 0,3.3803 -2.88564,5.5004 -7.53799,5.5004 z"
       id="path22"
       inkscape:connector-curvature="0"
       style="fill:#00293f;stroke-width:1.17781043" />
    <path
       class="cls-3"
       d="m 48.632174,-2513.4875 c -6.76063,0 -11.90766,-5.5828 -11.90766,-12.7321 0,-7.1493 5.09992,-12.6497 11.90766,-12.6497 a 13.368148,13.368148 0 0 1 9.65805,4.2166 l 2.35562,-2.5441 a 16.006443,16.006443 0 0 0 -11.99011,-4.8761 c -9.04559,0 -15.5471,7.1611 -15.5471,15.9475 0,8.7865 6.59574,15.8416 15.4411,15.8416 a 16.006443,16.006443 0 0 0 12.35522,-5.3944 l -2.35562,-2.2378 c -2.93274,2.8032 -5.7006,4.4285 -9.91716,4.4285 z"
       id="path24"
       inkscape:connector-curvature="0"
       style="fill:#00293f;stroke-width:1.17781043" />
    <path
       class="cls-3"
       d="m 13.886764,-2527.845 c -6.7724102,-1.4487 -8.3388902,-3.074 -8.3388902,-6.0186 0,-2.9445 2.53229,-5.0057 6.5368402,-5.0057 a 13.509485,13.509485 0 0 1 8.86892,3.3332 l 2.02583,-2.6736 a 16.041778,16.041778 0 0 0 -10.80052,-3.7808 c -5.8890502,0 -10.1056202,3.5335 -10.1056202,8.4332 0,4.8997 3.25076,7.3848 10.3176202,8.916 6.45441,1.3662 7.99734,2.9916 7.99734,5.889 0,3.1212 -2.72074,5.2766 -6.85486,5.2766 a 14.640183,14.640183 0 0 1 -10.6002902,-4.3461 l -2.09650002,2.5087 a 17.985165,17.985165 0 0 0 12.56723022,4.9468 c 6.10106,0 10.49429,-3.4274 10.49429,-8.7393 0,-4.7466 -3.16831,-7.2435 -10.01139,-8.7394 z"
       id="path26"
       inkscape:connector-curvature="0"
       style="fill:#00293f;stroke-width:1.17781043" />
    <path
       class="cls-3"
       d="m 95.426584,-2532.3678 c 0,-5.5357 -4.34612,-9.1751 -11.11853,-9.1751 h -13.21503 v 30.7409 h 3.47454 v -11.9548 h 8.78646 l 8.91603,11.943 h 4.26367 l -9.42248,-12.5673 c 4.80546,-0.8598 8.31534,-3.8514 8.31534,-8.9867 z m -20.85902,6.4544 v -12.4376 h 9.49315 c 4.95858,0 7.86777,2.2849 7.86777,6.101 0,3.8161 -3.30965,6.3366 -7.92666,6.3366 h -9.42249 z"
       id="path28"
       inkscape:connector-curvature="0"
       style="fill:#00293f;stroke-width:1.17781043" />
    <path
       class="cls-3"
       d="M 174.88167,-2541.5547 H 164.2107 v 30.7409 h 10.67097 c 9.65804,0 16.33623,-6.7253 16.33623,-15.4176 0,-8.6922 -6.64285,-15.3233 -16.33623,-15.3233 z m 0,27.5372 h -7.2082 v -24.3335 h 7.2082 c 7.77355,0 12.73213,5.359 12.73213,12.2139 0,6.8548 -4.95858,12.1196 -12.73213,12.1196 z"
       id="path30"
       inkscape:connector-curvature="0"
       style="fill:#00293f;stroke-width:1.17781043" />
  </g>
</svg>
