<?xml version="1.0" encoding="UTF-8"?>
<svg xmlns="http://www.w3.org/2000/svg" width="520" height="340" viewBox="0 0 520 340" fill="none">
  <g clip-path="url(#clip0_403_968)">
    <path d="M0 8C0 3.58172 3.58172 0 8 0H512C516.418 0 520 3.58172 520 8V332C520 336.418 516.418 340 512 340H8C3.58172 340 0 336.418 0 332V8Z" fill="#25303E"></path>
    <g clip-path="url(#clip1_403_968)">
      <path fill-rule="evenodd" clip-rule="evenodd" d="M161.764 159.368C161.999 159.385 162.241 159.401 162.492 159.418C162.743 159.435 162.986 159.46 163.22 159.493C163.471 159.527 163.714 159.569 163.948 159.619V169.181C163.63 169.064 163.304 168.964 162.969 168.88C162.651 168.797 162.325 168.73 161.99 168.679C161.655 168.629 161.312 168.596 160.961 168.579C160.626 168.562 160.292 168.562 159.957 168.579C159.079 168.604 158.2 168.73 157.347 168.956C156.494 169.156 155.69 169.483 154.912 169.884C154.109 170.286 153.381 170.763 152.704 171.315C152.026 171.867 151.424 172.52 150.897 173.197V197.091H140.907V159.744H150.52V163.133C151.24 162.53 152.018 161.995 152.854 161.526C153.674 161.041 154.536 160.64 155.439 160.322C156.326 160.004 157.238 159.761 158.175 159.594C159.129 159.426 160.074 159.343 161.011 159.343C161.262 159.343 161.513 159.351 161.764 159.368Z" fill="white"></path>
      <path fill-rule="evenodd" clip-rule="evenodd" d="M74.0448 185.697C74.7476 186.282 75.5005 186.809 76.3037 187.278C77.1069 187.746 77.9435 188.131 78.8136 188.432C79.6836 188.75 80.5705 188.993 81.474 189.16C82.3943 189.311 83.3146 189.386 84.2348 189.386C86.9204 189.386 88.9785 188.081 88.9785 186.224C88.9785 180.602 70.9577 182.61 70.9577 170.587C70.9577 163.434 77.8598 158.967 85.2388 158.967C86.3431 158.967 87.4475 159.05 88.5518 159.218C89.6561 159.385 90.7354 159.628 91.7895 159.946C92.8604 160.264 93.8978 160.657 94.9017 161.125C95.9057 161.594 96.8761 162.138 97.8132 162.757L93.1448 169.985C92.6261 169.583 92.0907 169.232 91.5385 168.931C90.9696 168.63 90.384 168.37 89.7816 168.153C89.1793 167.935 88.5602 167.768 87.9243 167.651C87.2885 167.534 86.6527 167.458 86.0168 167.425C83.256 167.425 80.9469 168.504 80.9469 170.437C80.9469 175.281 98.9928 173.373 98.9928 186.299C98.9928 193.452 91.9903 197.844 84.1595 197.844C82.821 197.828 81.4907 197.711 80.1689 197.493C78.847 197.276 77.5586 196.958 76.3037 196.539C75.032 196.104 73.8022 195.586 72.6142 194.983C71.4262 194.364 70.2884 193.653 69.2008 192.85L74.0448 185.697Z" fill="white"></path>
      <path fill-rule="evenodd" clip-rule="evenodd" d="M136.641 178.77C136.641 179.021 136.632 179.263 136.615 179.497C136.582 179.732 136.557 179.966 136.54 180.2C136.507 180.451 136.465 180.694 136.415 180.928H110.638C110.764 182.158 111.115 183.337 111.668 184.442C112.22 185.546 112.998 186.525 113.926 187.328C114.855 188.156 115.909 188.784 117.089 189.211C118.243 189.612 119.473 189.813 120.703 189.763C121.59 189.746 122.46 189.637 123.313 189.436C124.183 189.219 125.02 188.926 125.823 188.558C126.626 188.19 127.388 187.746 128.107 187.228C128.81 186.709 129.462 186.115 130.065 185.446L135.737 191.143C134.783 192.222 133.704 193.176 132.55 194.029C131.395 194.858 130.14 195.586 128.835 196.163C127.53 196.74 126.149 197.167 124.744 197.443C123.338 197.744 121.908 197.87 120.477 197.844C117.892 197.97 115.307 197.543 112.897 196.615C110.463 195.686 108.279 194.28 106.447 192.448C104.615 190.616 103.184 188.433 102.23 186.023C101.277 183.614 100.85 181.028 100.976 178.443C100.976 168.052 108.028 158.967 119.072 158.967C129.362 158.967 136.666 167.676 136.666 178.067C136.666 178.301 136.657 178.535 136.641 178.77ZM126.451 173.599C126.35 172.696 126.074 171.842 125.647 171.039C125.246 170.236 124.669 169.533 124.016 168.931C123.338 168.329 122.56 167.852 121.707 167.551C120.879 167.224 119.975 167.049 119.072 167.049C118.143 167.049 117.214 167.199 116.336 167.525C115.457 167.827 114.629 168.303 113.901 168.881C113.173 169.483 112.571 170.186 112.094 170.989C111.617 171.792 111.266 172.671 111.09 173.599H126.451Z" fill="white"></path>
      <path d="M187.741 182.535L197.931 159.745H208.297L191.18 197.092H184.278L167.16 159.745H177.526L187.741 182.535Z" fill="white"></path>
      <path fill-rule="evenodd" clip-rule="evenodd" d="M216.68 142.201C219.265 142.251 221.549 143.832 222.528 146.241C223.482 148.626 222.904 151.362 221.047 153.169C219.215 154.976 216.454 155.503 214.095 154.499C211.71 153.52 210.154 151.186 210.154 148.601C210.154 147.747 210.33 146.919 210.656 146.116C210.983 145.338 211.459 144.635 212.062 144.033C212.689 143.43 213.392 142.979 214.195 142.652C214.973 142.351 215.827 142.176 216.68 142.201Z" fill="white"></path>
      <path d="M211.685 159.745H221.675V197.092H211.685V159.745Z" fill="white"></path>
      <path fill-rule="evenodd" clip-rule="evenodd" d="M262.911 189.462C261.983 190.792 260.878 192.022 259.624 193.101C258.369 194.155 257.013 195.084 255.532 195.812C254.077 196.54 252.521 197.092 250.914 197.418C249.308 197.769 247.651 197.92 246.02 197.845C240.774 197.995 235.679 195.987 231.94 192.323C228.175 188.659 226.067 183.614 226.067 178.368C226.067 173.123 228.2 168.103 231.99 164.438C235.755 160.799 240.85 158.816 246.095 158.967C247.601 158.967 249.082 159.118 250.538 159.444C252.019 159.77 253.424 160.247 254.779 160.9C256.135 161.552 257.415 162.33 258.569 163.284C259.749 164.213 260.828 165.267 261.757 166.446L254.679 172.671C254.202 171.993 253.625 171.366 252.997 170.813C252.37 170.286 251.667 169.81 250.914 169.408C250.186 169.031 249.383 168.73 248.58 168.53C247.777 168.329 246.924 168.228 246.095 168.203C244.765 168.203 243.435 168.454 242.205 168.981C240.975 169.483 239.846 170.261 238.917 171.215C237.963 172.169 237.236 173.298 236.759 174.528C236.257 175.783 236.031 177.113 236.056 178.443C236.006 179.799 236.257 181.154 236.759 182.409C237.261 183.689 238.014 184.818 238.967 185.772C239.946 186.726 241.101 187.479 242.356 187.956C243.636 188.458 244.991 188.659 246.346 188.608C247.225 188.583 248.103 188.458 248.957 188.232C249.81 188.006 250.638 187.68 251.391 187.253C252.169 186.826 252.897 186.299 253.55 185.697C254.177 185.095 254.754 184.417 255.231 183.689L262.911 189.462Z" fill="white"></path>
      <path fill-rule="evenodd" clip-rule="evenodd" d="M299.154 191.143C298.2 192.222 297.121 193.176 295.966 194.029C294.812 194.858 293.557 195.586 292.252 196.163C290.921 196.74 289.566 197.167 288.161 197.443C286.755 197.744 285.324 197.87 283.894 197.844C281.309 197.97 278.724 197.543 276.314 196.615C273.879 195.686 271.696 194.255 269.864 192.448C268.032 190.616 266.601 188.433 265.647 186.023C264.719 183.614 264.292 181.028 264.392 178.443C264.392 168.052 271.445 158.967 282.513 158.967C292.779 158.967 300.082 167.676 300.082 178.067C300.082 178.301 300.074 178.535 300.057 178.77C300.057 179.004 300.049 179.246 300.032 179.497C300.015 179.732 299.99 179.966 299.957 180.2C299.923 180.434 299.89 180.669 299.856 180.903H274.055C274.181 182.133 274.532 183.337 275.084 184.417C275.636 185.521 276.414 186.5 277.343 187.328C278.247 188.131 279.326 188.784 280.48 189.185C281.66 189.612 282.89 189.813 284.12 189.763C285.007 189.729 285.877 189.612 286.73 189.411C287.6 189.211 288.437 188.926 289.24 188.558C290.043 188.19 290.804 187.746 291.524 187.228C292.227 186.692 292.879 186.098 293.481 185.446L299.154 191.143ZM289.867 173.599C289.767 172.696 289.491 171.842 289.064 171.039C288.663 170.236 288.085 169.533 287.433 168.931C286.755 168.329 285.977 167.852 285.124 167.525C284.295 167.224 283.392 167.049 282.488 167.049C281.56 167.049 280.631 167.199 279.753 167.525C278.874 167.827 278.046 168.278 277.318 168.881C276.59 169.483 275.988 170.186 275.511 170.989C275.034 171.792 274.683 172.671 274.507 173.599H289.867Z" fill="white"></path>
      <path fill-rule="evenodd" clip-rule="evenodd" d="M304.048 197.091V159.745H313.636V162.732C314.372 162.129 315.15 161.594 315.97 161.125C316.806 160.657 317.668 160.255 318.555 159.921C319.458 159.603 320.379 159.368 321.316 159.218C322.253 159.05 323.198 158.967 324.152 158.967C325.382 158.967 326.586 159.092 327.791 159.368C328.996 159.619 330.15 160.021 331.255 160.523C332.384 161.05 333.438 161.677 334.392 162.43C335.371 163.183 336.249 164.037 337.053 164.965C337.755 165.902 338.374 166.89 338.91 167.927C339.429 168.964 339.855 170.044 340.19 171.165C340.525 172.286 340.75 173.424 340.868 174.578C340.968 175.749 340.976 176.912 340.893 178.067V197.091H330.903V177.289C330.97 176.653 330.97 176.025 330.903 175.406C330.853 174.771 330.728 174.151 330.527 173.549C330.343 172.947 330.092 172.369 329.774 171.817C329.456 171.265 329.088 170.755 328.67 170.286C328.302 169.935 327.9 169.625 327.465 169.358C327.03 169.09 326.57 168.864 326.085 168.68C325.599 168.496 325.106 168.37 324.604 168.303C324.102 168.22 323.591 168.186 323.073 168.203C322.194 168.228 321.341 168.354 320.488 168.554C319.634 168.78 318.806 169.082 318.028 169.483C317.25 169.885 316.522 170.362 315.844 170.939C315.167 171.491 314.564 172.118 314.012 172.821V197.091H304.048Z" fill="white"></path>
      <path fill-rule="evenodd" clip-rule="evenodd" d="M378.741 162.807C382.33 165.267 385.091 168.755 386.698 172.796C388.279 176.862 388.63 181.279 387.701 185.521C386.748 189.763 384.564 193.653 381.402 196.64C381.025 196.991 380.599 197.292 380.122 197.493C379.67 197.694 379.143 197.819 378.641 197.844C378.139 197.87 377.612 197.819 377.11 197.669C376.633 197.518 376.156 197.267 375.755 196.966C374.424 195.962 372.943 195.184 371.362 194.682C369.756 194.155 368.099 193.879 366.443 193.879C364.786 193.879 363.13 194.155 361.549 194.682C359.968 195.184 358.462 195.962 357.131 196.966C356.73 197.267 356.278 197.518 355.776 197.669C355.299 197.819 354.772 197.895 354.27 197.87C353.768 197.819 353.266 197.719 352.789 197.518C352.312 197.317 351.886 197.016 351.534 196.665C348.347 193.678 346.138 189.788 345.184 185.496C344.256 181.229 344.607 176.787 346.239 172.721C347.87 168.655 350.656 165.166 354.295 162.706C357.909 160.272 362.201 158.967 366.568 158.967C370.936 158.992 375.152 160.347 378.741 162.807ZM370.66 190.942C371.99 190.415 373.194 189.612 374.224 188.608C375.227 187.579 376.031 186.374 376.583 185.044C377.11 183.689 377.361 182.258 377.311 180.828C377.311 177.941 376.181 175.18 374.148 173.147C372.09 171.089 369.329 169.96 366.443 169.96C363.557 169.96 360.796 171.089 358.763 173.147C356.705 175.18 355.575 177.941 355.575 180.828C355.525 182.258 355.776 183.689 356.328 185.044C356.855 186.374 357.658 187.579 358.662 188.608C359.691 189.612 360.896 190.415 362.226 190.942C363.582 191.469 365.012 191.746 366.443 191.695C367.874 191.746 369.304 191.469 370.66 190.942Z" fill="#62D84E"></path>
      <path d="M407.931 197.092H400.502L385.694 159.745H395.658L403.79 181.079L411.746 159.745H420.079L427.96 181.079L436.167 159.745H446.131L431.298 197.092H423.868L415.912 175.808L407.931 197.092Z" fill="white"></path>
      <path fill-rule="evenodd" clip-rule="evenodd" d="M446.231 192.85H445.403V194.431H444.675V190.114H446.432C446.616 190.114 446.792 190.148 446.959 190.215C447.126 190.282 447.277 190.382 447.411 190.516C447.545 190.65 447.645 190.8 447.712 190.968C447.779 191.135 447.813 191.311 447.813 191.495C447.813 191.645 447.796 191.779 447.762 191.896C447.712 192.03 447.654 192.156 447.587 192.273C447.503 192.373 447.411 192.465 447.311 192.549C447.21 192.649 447.093 192.725 446.959 192.775L447.938 194.456H447.16L446.231 192.85ZM445.403 192.197H446.432C446.608 192.197 446.809 192.122 446.934 191.997C447.085 191.846 447.16 191.67 447.16 191.47C447.16 191.294 447.085 191.093 446.934 190.968C446.809 190.817 446.608 190.742 446.432 190.742H445.403V192.197Z" fill="white"></path>
      <path fill-rule="evenodd" clip-rule="evenodd" d="M447.913 188.055C448.49 188.306 448.992 188.633 449.444 189.059C449.871 189.511 450.222 190.013 450.448 190.59C450.674 191.143 450.799 191.745 450.799 192.372C450.799 194.255 449.67 195.936 447.913 196.664C446.181 197.392 444.173 196.991 442.843 195.66C441.513 194.33 441.111 192.322 441.839 190.59C442.542 188.834 444.248 187.704 446.131 187.704C446.758 187.704 447.361 187.83 447.913 188.055ZM444.6 188.658C444.123 188.859 443.671 189.135 443.295 189.511C442.918 189.888 442.642 190.339 442.441 190.816C442.241 191.318 442.115 191.82 442.115 192.347C442.115 193.979 443.094 195.434 444.6 196.062C446.106 196.689 447.838 196.338 448.992 195.183C450.122 194.054 450.473 192.322 449.845 190.816C449.218 189.31 447.762 188.332 446.131 188.332C445.604 188.332 445.077 188.457 444.6 188.658Z" fill="white"></path>
    </g>
  </g>
  <defs>
    <clipPath id="clip0_403_968">
      <rect width="520" height="340" fill="white"></rect>
    </clipPath>
    <clipPath id="clip1_403_968">
      <rect width="382" height="55.9698" fill="white" transform="translate(69 142)"></rect>
    </clipPath>
  </defs>
</svg>
